<svg width="24" height="24" viewBox="0 0 24 24" fill="none" xmlns="http://www.w3.org/2000/svg">
<path fill-rule="evenodd" clip-rule="evenodd" d="M19.001 20.75L16.691 11.75V11.75C17.5451 10.6874 18.0076 9.36329 18.001 8V8C18.001 4.68629 15.3147 2 12.001 2C8.6873 2 6.00101 4.68629 6.00101 8L6.00101 8.00007C5.99829 9.37388 6.47185 10.7062 7.34105 11.77L5.00101 20.75H5.00101C4.86237 21.2846 5.18337 21.8304 5.71797 21.969C5.97666 22.0361 6.25145 21.9968 6.48101 21.86L11.811 18.73L17.491 21.87V21.87C17.6445 21.9626 17.8219 22.0078 18.001 22V22C18.553 22.0176 19.0148 21.5844 19.0324 21.0324C19.0354 20.9372 19.0249 20.8422 19.001 20.75H19.001ZM12 4V4C14.2091 4 16 5.79086 16 8C16 10.2091 14.2091 12 12 12C9.79086 12 8 10.2091 8 8V8C8 5.79086 9.79086 4 12 4V4Z" fill="#86FFA1"/>
</svg>
