<svg width="24" height="24" viewBox="0 0 24 24" fill="none" xmlns="http://www.w3.org/2000/svg">
<path fill-rule="evenodd" clip-rule="evenodd" d="M12 2C6.47715 2 2 6.47715 2 12C2 17.5229 6.47715 22 12 22C17.5229 22 22 17.5229 22 12C22 6.47715 17.5229 2 12 2ZM12 20C7.58172 20 4 16.4183 4 12C4 7.58172 7.58172 4 12 4C16.4183 4 20 7.58172 20 12C20 16.4183 16.4183 20 12 20ZM13 11H16C16.5523 11 17 11.4477 17 12C17 12.5523 16.5523 13 16 13H12C11.4477 13 11 12.5523 11 12V8C11 7.44771 11.4477 7 12 7C12.5523 7 13 7.44771 13 8V11Z" fill="#86FFA1"/>
</svg>
