<svg width="24" height="24" viewBox="0 0 24 24" fill="none" xmlns="http://www.w3.org/2000/svg">
<path fill-rule="evenodd" clip-rule="evenodd" d="M16.42 8.99994H19C19.5523 8.99994 20 9.44766 20 9.99994C20 10.5522 19.5523 10.9999 19 10.9999H14C13.4477 10.9999 13 10.5522 13 9.99994V4.99994C13 4.44766 13.4477 3.99994 14 3.99994C14.5523 3.99994 15 4.44766 15 4.99994V7.56994L18.29 4.28994C18.6821 3.89782 19.3179 3.89782 19.71 4.28994C20.1021 4.68206 20.1021 5.31782 19.71 5.70994L16.42 8.99994ZM5.00189 12.9999H10.0019C10.5542 12.9999 11.0019 13.4477 11.0019 13.9999V18.9999C11.0019 19.5522 10.5542 19.9999 10.0019 19.9999C9.4496 19.9999 9.00189 19.5522 9.00189 18.9999V16.4199L5.71189 19.7099L5.70609 19.7157C5.31397 20.1047 4.68081 20.1021 4.29189 19.7099L4.28609 19.7041C3.89717 19.312 3.89977 18.6789 4.29189 18.2899L7.57189 14.9999H5.00189C4.44961 14.9999 4.00189 14.5522 4.00189 13.9999C4.00189 13.4477 4.44961 12.9999 5.00189 12.9999Z" fill="#86FFA1"/>
</svg>
