<svg width="24" height="24" viewBox="0 0 24 24" fill="none" xmlns="http://www.w3.org/2000/svg">
<g clip-path="url(#clip0_259_62768)">
<mask id="mask0_259_62768" style="mask-type:alpha" maskUnits="userSpaceOnUse" x="0" y="3" width="24" height="18">
<path d="M21.7143 3H2.28571C1.02335 3 0 4.07452 0 5.4V18.6C0 19.9255 1.02335 21 2.28571 21H21.7143C22.9767 21 24 19.9255 24 18.6V5.4C24 4.07452 22.9767 3 21.7143 3Z" fill="white"/>
</mask>
<g mask="url(#mask0_259_62768)">
<path d="M21.7143 3H2.28571C1.02335 3 0 4.07452 0 5.4V18.6C0 19.9255 1.02335 21 2.28571 21H21.7143C22.9767 21 24 19.9255 24 18.6V5.4C24 4.07452 22.9767 3 21.7143 3Z" fill="#22438B"/>
<path fill-rule="evenodd" clip-rule="evenodd" d="M3.42856 4.19995L1.11313 4.23115L1.14284 6.59995L20.5508 19.8336L22.8788 19.7892L22.8354 17.4348L3.42856 4.19995Z" fill="white"/>
<path fill-rule="evenodd" clip-rule="evenodd" d="M2.28573 4.19995L1.44001 3.5L0.480011 5L1.14287 5.39995L21.7143 19.8L22.56 20.5L23.52 19L22.8572 18.6L2.28573 4.19995Z" fill="#C7152A"/>
<path fill-rule="evenodd" clip-rule="evenodd" d="M20.5714 4.19995H22.8572V6.59995C22.8572 6.59995 9.42859 15.4752 3.44916 19.8336C3.37716 19.8864 1.16573 19.8372 1.16573 19.8372L0.988586 17.556L20.5714 4.19995Z" fill="white"/>
<path fill-rule="evenodd" clip-rule="evenodd" d="M21.7634 4.16638L22.56 3.5L23.52 5L22.8572 5.39998L2.28572 19.8L1.44001 20.5L0.480011 19L1.14287 18.6L21.7634 4.16638Z" fill="#C7152A"/>
<path fill-rule="evenodd" clip-rule="evenodd" d="M9.14285 4.19995H14.8571V8.99995H22.8571V15H14.8571V19.8H9.14285V15H1.14285V8.99995H9.14285V4.19995Z" fill="white"/>
<path fill-rule="evenodd" clip-rule="evenodd" d="M10.2857 4.19995H13.7143V10.2H22.8571V13.8H13.7143V19.8H10.2857V13.8H1.14285V10.2H10.2857V4.19995Z" fill="#C7152A"/>
<path d="M21.7143 3.6001H2.28573C1.33895 3.6001 0.571442 4.40599 0.571442 5.4001V18.6001C0.571442 19.5942 1.33895 20.4001 2.28573 20.4001H21.7143C22.6611 20.4001 23.4286 19.5942 23.4286 18.6001V5.4001C23.4286 4.40599 22.6611 3.6001 21.7143 3.6001Z" stroke="#1F3C7D"/>
</g>
</g>
<defs>
<clipPath id="clip0_259_62768">
<rect width="24" height="18" fill="white" transform="translate(0 3)"/>
</clipPath>
</defs>
</svg>
