<svg width="24" height="24" viewBox="0 0 24 24" fill="none" xmlns="http://www.w3.org/2000/svg" aria-hidden="true" class="Icons_icon__IQ7We HeaderSecondaryBar_iconFlag__NefIz" focusable="false"><mask id="mask0_1152_14510" maskUnits="userSpaceOnUse" x="0" y="3" width="24" height="18" style="mask-type: alpha;"><path d="M21.7143 3H2.28571C1.02335 3 0 4.07452 0 5.4V18.6C0 19.9255 1.02335 21 2.28571 21H21.7143C22.9767 21 24 19.9255 24 18.6V5.4C24 4.07452 22.9767 3 21.7143 3Z" fill="white"></path></mask><g mask="url(#mask0_1152_14510)"><path d="M21.7143 3H2.28571C1.02335 3 0 4.07452 0 5.4V18.6C0 19.9255 1.02335 21 2.28571 21H21.7143C22.9767 21 24 19.9255 24 18.6V5.4C24 4.07452 22.9767 3 21.7143 3Z" fill="#00008E"></path><path fill-rule="evenodd" clip-rule="evenodd" d="M4.57143 16.8L5.71428 16.2L6.28571 15L6.85714 16.2L8 16.8L6.85714 17.4L6.28571 18.6L5.71428 17.4L4.57143 16.8ZM16 6.59998V7.79998H17.1429V6.59998H16ZM19.4286 7.79998V8.99998H20.5714V7.79998H19.4286ZM14.8571 10.2V11.4H16V10.2H14.8571ZM18.2857 11.4V12.6H19.4286V11.4H18.2857ZM17.1429 15V16.2H18.2857V15H17.1429Z" fill="#BDC4E7"></path><path d="M10.2857 4.19995H2.28571C1.65453 4.19995 1.14285 4.73721 1.14285 5.39995V11.4C1.14285 12.0627 1.65453 12.6 2.28571 12.6H10.2857C10.9169 12.6 11.4286 12.0627 11.4286 11.4V5.39995C11.4286 4.73721 10.9169 4.19995 10.2857 4.19995Z" fill="white"></path><path fill-rule="evenodd" clip-rule="evenodd" d="M5.71429 9.00002H2.28572V7.80002H5.71429V5.40002H6.85715V7.80002H10.2857V9.00002H6.85715V11.4H5.71429V9.00002ZM8.57144 10.2V11.4H10.2857V10.2H8.57144ZM8.57144 5.40002V6.60002H10.2857V5.40002H8.57144ZM2.28572 10.2V11.4H4.00001V10.2H2.28572ZM2.28572 5.40002V6.60002H4.00001V5.40002H2.28572Z" fill="#FF0000"></path><path d="M21.7143 3.59998H2.28573C1.33895 3.59998 0.571442 4.40586 0.571442 5.39998V18.6C0.571442 19.5941 1.33895 20.4 2.28573 20.4H21.7143C22.6611 20.4 23.4286 19.5941 23.4286 18.6V5.39998C23.4286 4.40586 22.6611 3.59998 21.7143 3.59998Z" stroke="black" stroke-opacity="0.1" fill="transparent"></path></g></svg>
