<svg width="160" height="49" viewBox="0 0 160 49" fill="none" xmlns="http://www.w3.org/2000/svg">
<path d="M154.074 48.0919H5.92474C2.66548 48.0919 0 45.4252 0 42.1659V6.61037C0 3.35111 2.66548 0.684448 5.92474 0.684448H154.074C157.333 0.684448 160 3.35111 160 6.61037V42.1659C160 45.4252 157.333 48.0919 154.074 48.0919Z" fill="#030404"/>
<path d="M154.074 0.684448H5.92474C2.66548 0.684448 0 3.35111 0 6.61037V42.1659C0 45.4252 2.66548 48.0919 5.92474 48.0919H154.074C157.333 48.0919 160 45.4252 160 42.1659V6.61037C160 3.35111 157.333 0.684448 154.074 0.684448ZM154.074 1.6326C156.819 1.6326 159.052 3.86667 159.052 6.61037V42.1659C159.052 44.9108 156.819 47.1449 154.074 47.1449H5.92474C3.18104 47.1449 0.948148 44.9108 0.948148 42.1659V6.61037C0.948148 3.86667 3.18104 1.6326 5.92474 1.6326H154.074Z" fill="#A7A5A6"/>
<path d="M56.1493 12.2886H52.7028V13.1431H55.2853C55.2154 13.8376 54.9368 14.384 54.4711 14.781C54.0041 15.178 53.4079 15.3772 52.7028 15.3772C51.9277 15.3772 51.2722 15.1093 50.7365 14.5724C50.2103 14.026 49.9413 13.3517 49.9413 12.5363C49.9413 11.722 50.2103 11.0465 50.7365 10.5001C51.2722 9.96442 51.9277 9.69657 52.7028 9.69657C53.0998 9.69657 53.4779 9.76531 53.8251 9.91464C54.1724 10.064 54.4509 10.2726 54.669 10.5404L55.3244 9.88501C55.0269 9.54723 54.6488 9.28886 54.1831 9.10042C53.7161 8.91197 53.229 8.8219 52.7028 8.8219C51.6693 8.8219 50.7958 9.17983 50.0811 9.89449C49.3653 10.6103 49.0085 11.4933 49.0085 12.5363C49.0085 13.5792 49.3653 14.4634 50.0811 15.178C50.7958 15.8939 51.6693 16.2506 52.7028 16.2506C53.7848 16.2506 54.6488 15.9034 55.3149 15.1982C55.9004 14.6127 56.1991 13.8175 56.1991 12.8243C56.1991 12.656 56.1789 12.477 56.1493 12.2886Z" fill="white"/>
<path d="M57.51 8.98071V16.0918H61.6617V15.2183H58.4238V12.9641H61.3429V12.1096H58.4238V9.85538H61.6617V8.98071H57.51Z" fill="white"/>
<path d="M67.4998 9.85538V8.98071H62.6133V9.85538H64.5997V16.0918H65.5134V9.85538H67.4998Z" fill="white"/>
<path d="M71.9502 8.98071H71.0364V16.0918H71.9502V8.98071Z" fill="white"/>
<path d="M77.9888 9.85538V8.98071H73.1023V9.85538H75.0887V16.0918H76.0024V9.85538H77.9888Z" fill="white"/>
<path d="M87.2356 9.90516C86.5304 9.17982 85.6664 8.8219 84.6329 8.8219C83.6006 8.8219 82.7354 9.17983 82.0302 9.89449C81.325 10.5997 80.9778 11.4838 80.9778 12.5363C80.9778 13.5899 81.325 14.4729 82.0302 15.178C82.7354 15.8939 83.6006 16.2506 84.6329 16.2506C85.6557 16.2506 86.5304 15.8939 87.2356 15.178C87.9408 14.4729 88.288 13.5899 88.288 12.5363C88.288 11.4933 87.9408 10.6103 87.2356 9.90516ZM82.6868 10.5001C83.213 9.96442 83.8578 9.69657 84.6329 9.69657C85.408 9.69657 86.0527 9.96442 86.5695 10.5001C87.0957 11.0275 87.3541 11.7126 87.3541 12.5363C87.3541 13.3612 87.0957 14.0462 86.5695 14.5724C86.0527 15.1093 85.408 15.3772 84.6329 15.3772C83.8578 15.3772 83.213 15.1093 82.6868 14.5724C82.1701 14.0367 81.9117 13.3612 81.9117 12.5363C81.9117 11.7126 82.1701 11.037 82.6868 10.5001Z" fill="white"/>
<path d="M90.4829 11.6628L90.4438 10.2915H90.4829L94.0989 16.0918H95.0518V8.98071H94.138V13.1431L94.1783 14.5132H94.138L90.682 8.98071H89.5703V16.0918H90.4829V11.6628Z" fill="white"/>
<path fill-rule="evenodd" clip-rule="evenodd" d="M56.1493 12.2886H52.7028V13.1431H55.2853C55.2154 13.8376 54.9368 14.384 54.4711 14.781C54.0041 15.178 53.4079 15.3772 52.7028 15.3772C51.9277 15.3772 51.2722 15.1093 50.7365 14.5724C50.2103 14.026 49.9413 13.3517 49.9413 12.5363C49.9413 11.722 50.2103 11.0465 50.7365 10.5001C51.2722 9.96442 51.9277 9.69657 52.7028 9.69657C53.0998 9.69657 53.4779 9.76531 53.8251 9.91464C54.1724 10.064 54.4509 10.2726 54.669 10.5404L55.3244 9.88501C55.0269 9.54723 54.6488 9.28886 54.1831 9.10042C53.7161 8.91197 53.229 8.8219 52.7028 8.8219C51.6693 8.8219 50.7958 9.17983 50.0811 9.89449C49.3653 10.6103 49.0085 11.4933 49.0085 12.5363C49.0085 13.5792 49.3653 14.4634 50.0811 15.178C50.7958 15.8939 51.6693 16.2506 52.7028 16.2506C53.7848 16.2506 54.6488 15.9034 55.3149 15.1982C55.9004 14.6127 56.1991 13.8175 56.1991 12.8243C56.1991 12.656 56.1789 12.477 56.1493 12.2886ZM57.5099 8.98071V16.0918H61.6616V15.2183H58.4237V12.9641H61.3428V12.1096H58.4237V9.85538H61.6616V8.98071H57.5099ZM67.4998 9.85538V8.98071H62.6145V9.85538H64.6008V16.0918H65.5134V9.85538H67.4998ZM71.9502 8.98071H71.0364V16.0918H71.9502V8.98071ZM77.9887 9.85538V8.98071H73.1022V9.85538H75.0885V16.0918H76.0023V9.85538H77.9887ZM87.2355 9.90516C86.5303 9.17982 85.6663 8.8219 84.6328 8.8219C83.5994 8.8219 82.7354 9.17983 82.0302 9.89449C81.325 10.5997 80.9777 11.4838 80.9777 12.5363C80.9777 13.5899 81.325 14.4729 82.0302 15.178C82.7354 15.8939 83.5994 16.2506 84.6328 16.2506C85.6557 16.2506 86.5303 15.8939 87.2355 15.178C87.9407 14.4729 88.288 13.5899 88.288 12.5363C88.288 11.4933 87.9407 10.6103 87.2355 9.90516ZM82.6868 10.5001C83.213 9.96442 83.8577 9.69657 84.6328 9.69657C85.408 9.69657 86.0527 9.96442 86.5694 10.5001C87.0957 11.0275 87.354 11.7126 87.354 12.5363C87.354 13.3612 87.0957 14.0462 86.5694 14.5724C86.0527 15.1093 85.408 15.3772 84.6328 15.3772C83.8577 15.3772 83.213 15.1093 82.6868 14.5724C82.17 14.0367 81.9117 13.3612 81.9117 12.5363C81.9117 11.7126 82.17 11.037 82.6868 10.5001ZM90.4841 11.6628L90.4438 10.2915H90.4841L94.0989 16.0918H95.0518V8.98071H94.138V13.1431L94.1783 14.5132H94.138L90.682 8.98071H89.5703V16.0918H90.4841V11.6628Z" stroke="white" stroke-width="0.00148017" stroke-miterlimit="2"/>
<path d="M126.739 36.2412H128.95V21.424H126.739V36.2412ZM146.658 26.7609L144.123 33.1846H144.047L141.416 26.7609H139.034L142.981 35.7399L140.73 40.7331H143.036L149.118 26.7609H146.658ZM134.115 34.5583C133.393 34.5583 132.382 34.1956 132.382 33.2996C132.382 32.1559 133.64 31.7174 134.726 31.7174C135.698 31.7174 136.156 31.9272 136.747 32.2128C136.575 33.5852 135.393 34.5583 134.115 34.5583ZM134.383 26.4374C132.782 26.4374 131.124 27.1426 130.438 28.7058L132.401 29.5248C132.82 28.7058 133.601 28.4392 134.421 28.4392C135.565 28.4392 136.728 29.1254 136.747 30.3449V30.4978C136.346 30.2691 135.488 29.9254 134.44 29.9254C132.323 29.9254 130.17 31.088 130.17 33.2617C130.17 35.2445 131.905 36.5209 133.849 36.5209C135.335 36.5209 136.156 35.8537 136.67 35.0726H136.747V36.2163H138.882V30.5357C138.882 27.9046 136.917 26.4374 134.383 26.4374ZM120.716 28.5648H117.57V23.4863H120.716C122.369 23.4863 123.308 24.8552 123.308 26.0261C123.308 27.1746 122.369 28.5648 120.716 28.5648ZM120.659 21.424H115.359V36.2412H117.57V30.627H120.659C123.11 30.627 125.519 28.8528 125.519 26.0261C125.519 23.1995 123.11 21.424 120.659 21.424ZM91.7617 34.5606C90.234 34.5606 88.9552 33.2806 88.9552 31.5254C88.9552 29.7488 90.234 28.451 91.7617 28.451C93.2705 28.451 94.4545 29.7488 94.4545 31.5254C94.4545 33.2806 93.2705 34.5606 91.7617 34.5606ZM94.3016 27.5917H94.2245C93.7279 26.9992 92.7739 26.4646 91.5709 26.4646C89.05 26.4646 86.7401 28.6797 86.7401 31.5254C86.7401 34.3509 89.05 36.5458 91.5709 36.5458C92.7739 36.5458 93.7279 36.0113 94.2245 35.4009H94.3016V36.1263C94.3016 38.0546 93.2704 39.0857 91.6088 39.0857C90.2542 39.0857 89.4139 38.1126 89.0702 37.2913L87.1419 38.0925C87.6953 39.4294 89.165 41.072 91.6088 41.072C94.2067 41.072 96.4017 39.5443 96.4017 35.8205V26.7704H94.3016V27.5917ZM97.9294 36.2412H100.145V21.424H97.9294V36.2412ZM103.409 31.3523C103.353 29.4051 104.918 28.4131 106.044 28.4131C106.923 28.4131 107.667 28.8516 107.916 29.4809L103.409 31.3523ZM110.283 29.6729C109.863 28.5458 108.584 26.4646 105.969 26.4646C103.371 26.4646 101.214 28.5079 101.214 31.5052C101.214 34.3319 103.353 36.5458 106.216 36.5458C108.526 36.5458 109.863 35.1331 110.418 34.3129L108.698 33.1669C108.126 34.0072 107.343 34.5606 106.216 34.5606C105.089 34.5606 104.288 34.0451 103.772 33.0329L110.513 30.2454L110.283 29.6729ZM56.5842 28.0113V30.1494H61.7019C61.549 31.3523 61.1484 32.2306 60.5368 32.8421C59.7925 33.5864 58.6275 34.4078 56.5842 34.4078C53.434 34.4078 50.9712 31.8691 50.9712 28.7177C50.9712 25.5675 53.434 23.0276 56.5842 23.0276C58.2838 23.0276 59.5247 23.696 60.442 24.5553L61.9496 23.0466C60.6707 21.8246 58.9712 20.8895 56.5842 20.8895C52.269 20.8895 48.6411 24.4024 48.6411 28.7177C48.6411 33.0329 52.269 36.5458 56.5842 36.5458C58.9131 36.5458 60.6707 35.7826 62.0456 34.3509C63.4583 32.9369 63.898 30.9517 63.898 29.3482C63.898 28.8516 63.8589 28.3929 63.783 28.0113H56.5842ZM69.7149 34.5606C68.1872 34.5606 66.8693 33.3008 66.8693 31.5052C66.8693 29.6919 68.1872 28.451 69.7149 28.451C71.2426 28.451 72.5605 29.6919 72.5605 31.5052C72.5605 33.3008 71.2426 34.5606 69.7149 34.5606ZM69.7149 26.4646C66.9273 26.4646 64.6553 28.5849 64.6553 31.5052C64.6553 34.4077 66.9273 36.5458 69.7149 36.5458C72.5024 36.5458 74.7744 34.4077 74.7744 31.5052C74.7744 28.5849 72.5024 26.4646 69.7149 26.4646ZM80.7525 34.5606C79.226 34.5606 77.9081 33.3008 77.9081 31.5052C77.9081 29.6919 79.226 28.451 80.7525 28.451C82.2802 28.451 83.5982 29.6919 83.5982 31.5052C83.5982 33.3008 82.2802 34.5606 80.7525 34.5606ZM80.7525 26.4646C77.965 26.4646 75.693 28.5849 75.693 31.5052C75.693 34.4077 77.965 36.5458 80.7525 36.5458C83.5413 36.5458 85.8133 34.4077 85.8133 31.5052C85.8133 28.5849 83.5413 26.4646 80.7525 26.4646Z" fill="white"/>
<path d="M24.5535 23.7067L11.9348 37.0993C11.936 37.1016 11.936 37.104 11.9372 37.1064C12.3236 38.5618 13.6521 39.632 15.2284 39.632C15.859 39.632 16.4504 39.4613 16.9576 39.1627L16.9979 39.139L31.2012 30.9434L24.5535 23.7067Z" fill="#EB4335"/>
<path d="M37.319 21.4263L37.3072 21.418L31.175 17.8624L24.2666 24.01L31.1987 30.9409L37.2989 27.4221C38.3679 26.8449 39.0933 25.7178 39.0933 24.4177C39.0933 23.127 38.3774 22.0046 37.319 21.4263Z" fill="#FABC13"/>
<path d="M11.9348 11.6807C11.8589 11.9604 11.8186 12.2531 11.8186 12.5577V36.2223C11.8186 36.5269 11.8577 36.8208 11.9348 37.0993L24.9872 24.0493L11.9348 11.6807Z" fill="#547DBF"/>
<path d="M24.6459 24.3893L31.1775 17.8601L16.9896 9.63494C16.4741 9.32561 15.8732 9.14783 15.2284 9.14783C13.6521 9.14783 12.3224 10.2204 11.9348 11.677V11.6806L24.6459 24.3893Z" fill="#30A851"/>
</svg>
