<svg width="16" height="16" viewBox="0 0 16 16" fill="none" xmlns="http://www.w3.org/2000/svg">
<path fill-rule="evenodd" clip-rule="evenodd" d="M8.00077 10.6668C7.845 10.6671 7.69404 10.6128 7.5741 10.5135L3.5741 7.18012H3.5741C3.2906 6.94448 3.25179 6.52362 3.48744 6.24012C3.72308 5.95661 4.14393 5.91781 4.42744 6.15345V6.15345L8.00077 9.14012L11.5741 6.26012C11.8599 6.02801 12.2798 6.07155 12.5119 6.35737C12.5126 6.35828 12.5134 6.3592 12.5141 6.36012C12.759 6.63506 12.7346 7.05647 12.4597 7.30135C12.4471 7.31254 12.4341 7.32324 12.4208 7.33345L8.42077 10.5534C8.29738 10.6371 8.1495 10.677 8.00077 10.6668V10.6668Z" fill="#003349"/>
</svg>
