<svg width="24" height="24" viewBox="0 0 24 24" fill="none" xmlns="http://www.w3.org/2000/svg">
<path fill-rule="evenodd" clip-rule="evenodd" d="M16.76 5.99999C19.8631 5.925 22.5373 8.17062 23 11.24C23.0342 11.5081 23.0503 11.7782 23.0482 12.0485C23.0214 15.3621 20.3136 18.0267 17 18H15C14.4477 18 14 17.5523 14 17C14 16.4477 14.4477 16 15 16H17C17.1293 16.0005 17.2585 15.9948 17.3872 15.9829C19.5868 15.7785 21.2044 13.8297 21 11.63C20.7429 9.51531 18.9195 7.94315 16.79 7.99999H15C14.4477 7.99999 14 7.55228 14 6.99999C14 6.44999 14.44 5.99999 15.25 5.99999H16.76ZM9 16H7.21C5.0805 16.0568 3.25714 14.4847 3 12.37C2.79563 10.1703 4.41314 8.22146 6.61281 8.01709C6.74152 8.00513 6.87073 7.99942 7 7.99998H9C9.55228 7.99998 10 7.55226 10 6.99998C10 6.44769 9.55228 5.99998 9 5.99998H7.21C4.14528 5.95902 1.5182 8.18096 1.05 11.21C0.613691 14.4948 2.9229 17.5114 6.20776 17.9477C6.47039 17.9826 6.73505 18.0001 6.99999 18H8.99999C9.55228 18 9.99999 17.5523 9.99999 17C9.99999 16.4477 9.55228 16 8.99999 16L9 16ZM8 12C8 12.5523 8.44772 13 9 13H15C15.5523 13 16 12.5523 16 12C16 11.4477 15.5523 11 15 11H9C8.44771 11 8 11.4477 8 12Z" fill="#86FFA1"/>
</svg>
