<svg width="24" height="24" viewBox="0 0 24 24" fill="none" xmlns="http://www.w3.org/2000/svg">
<path fill-rule="evenodd" clip-rule="evenodd" d="M6 8C6 4.68629 8.68629 2 12 2C15.3137 2 18 4.68629 18 8V11C19.1046 11 20 11.8954 20 13V20C20 21.1046 19.1046 22 18 22H6C4.89543 22 4 21.1046 4 20V13C4 11.8954 4.89543 11 6 11V8ZM16 8V11H8V8C8 5.79086 9.79086 4 12 4C14.2091 4 16 5.79086 16 8ZM14 15C14 15.7403 13.5978 16.3866 13 16.7324V20H11V16.7324C10.4022 16.3866 10 15.7403 10 15C10 13.8954 10.8954 13 12 13C13.1046 13 14 13.8954 14 15Z" fill="#86FFA1"/>
</svg>
