<svg width="24" height="24" viewBox="0 0 24 24" fill="none" xmlns="http://www.w3.org/2000/svg">
<path fill-rule="evenodd" clip-rule="evenodd" d="M12.8701 22C12.3872 21.9994 11.9239 21.8091 11.5801 21.47L5.17006 15.05C5.00557 14.8865 4.90305 14.6708 4.88006 14.44L4.00006 5.09C3.97278 4.79345 4.07909 4.50018 4.29006 4.29C4.50024 4.07903 4.79351 3.97272 5.09006 4L14.4401 4.88C14.6709 4.90299 14.8865 5.00551 15.0501 5.17L21.4701 11.58C22.1782 12.2903 22.1782 13.4397 21.4701 14.15L14.1501 21.47C13.8099 21.8085 13.3499 21.999 12.8701 22ZM6.87005 13.89L12.87 19.89L19.92 12.84L13.92 6.83999L6.11005 6.10999L6.87005 13.89ZM11.5607 11.5607C12.1465 10.9749 12.1465 10.0251 11.5607 9.43934C10.9749 8.85355 10.0252 8.85355 9.4394 9.43934C8.85361 10.0251 8.85361 10.9749 9.4394 11.5607C10.0252 12.1464 10.9749 12.1464 11.5607 11.5607Z" fill="#86FFA1"/>
</svg>
