<svg width="24" height="25" viewBox="0 0 24 25" fill="none" xmlns="http://www.w3.org/2000/svg">
<path fill-rule="evenodd" clip-rule="evenodd" d="M8.28093 3.18506C9.23934 3.1414 9.54538 3.1311 11.9858 3.1311C14.4262 3.1311 14.7322 3.1414 15.6906 3.18506C16.6471 3.22865 17.3002 3.3802 17.8718 3.60185C18.4627 3.83094 18.9638 4.13753 19.4634 4.63599C19.9629 5.13445 20.2702 5.63452 20.4998 6.22412C20.722 6.79446 20.8739 7.44623 20.9175 8.40058C20.9612 9.35694 20.9716 9.6622 20.9716 12.0973C20.9716 14.5324 20.9612 14.8377 20.9175 15.794C20.8739 16.7484 20.722 17.4002 20.4998 17.9705C20.2702 18.5601 19.9629 19.0602 19.4634 19.5586C18.9638 20.0571 18.4627 20.3637 17.8718 20.5928C17.3002 20.8144 16.6471 20.966 15.6906 21.0096C14.7322 21.0532 14.4262 21.0635 11.9858 21.0635C9.54538 21.0635 9.23934 21.0532 8.28093 21.0096C7.32445 20.966 6.67129 20.8144 6.09974 20.5928C5.50881 20.3637 5.00773 20.0571 4.50818 19.5586C4.00863 19.0602 3.70133 18.5601 3.47174 17.9705C3.24956 17.4002 3.09768 16.7484 3.05404 15.794C3.01028 14.8377 3 14.5324 3 12.0973C3 9.6622 3.01028 9.35694 3.05404 8.40058C3.09768 7.44623 3.24956 6.79446 3.47174 6.22412C3.70133 5.63452 4.00863 5.13445 4.50818 4.63599C5.00773 4.13753 5.50881 3.83094 6.09974 3.60185C6.67129 3.3802 7.32445 3.22865 8.28093 3.18506ZM15.6168 4.79889C14.6692 4.75574 14.3851 4.74658 11.9858 4.74658C9.58646 4.74658 9.30232 4.75574 8.35474 4.79889C7.47865 4.83875 7.00285 4.98487 6.68622 5.10764C6.26674 5.27027 5.9674 5.46462 5.65301 5.77832C5.33858 6.0921 5.14385 6.39075 4.98083 6.80927C4.85778 7.12522 4.71138 7.60002 4.6714 8.47416C4.62819 9.41967 4.61902 9.70319 4.61902 12.0973C4.61902 14.4914 4.62819 14.7749 4.6714 15.7204C4.71138 16.5946 4.85778 17.0694 4.98083 17.3853C5.14385 17.8038 5.33858 18.1025 5.65301 18.4163C5.9674 18.73 6.26674 18.9243 6.68622 19.087C7.00285 19.2097 7.47865 19.3559 8.35474 19.3957C9.30217 19.4389 9.58627 19.4479 11.9858 19.4479C14.3853 19.4479 14.6694 19.4389 15.6168 19.3957C16.4929 19.3559 16.9687 19.2097 17.2853 19.087C17.7048 18.9243 18.0041 18.73 18.3186 18.4163C18.633 18.1025 18.8278 17.8038 18.9907 17.3853C19.1137 17.0694 19.2601 16.5946 19.3002 15.7204C19.3433 14.7749 19.3525 14.4914 19.3525 12.0973C19.3525 9.70319 19.3433 9.41967 19.3002 8.47416C19.2601 7.60002 19.1137 7.12522 18.9907 6.80927C18.8278 6.39075 18.633 6.0921 18.3186 5.77832C18.0041 5.46462 17.7048 5.27027 17.2853 5.10764C16.9687 4.98487 16.4929 4.83875 15.6168 4.79889ZM8.99049 12.0973C8.99049 13.7479 10.3315 15.086 11.9858 15.086C13.64 15.086 14.981 13.7479 14.981 12.0973C14.981 10.4467 13.64 9.10856 11.9858 9.10856C10.3315 9.10856 8.99049 10.4467 8.99049 12.0973ZM7.37144 12.0973C7.37144 9.55447 9.43738 7.49304 11.9858 7.49304C14.5342 7.49304 16.6001 9.55447 16.6001 12.0973C16.6001 14.6402 14.5342 16.7015 11.9858 16.7015C9.43738 16.7015 7.37144 14.6402 7.37144 12.0973ZM16.7824 8.38708C17.378 8.38708 17.8607 7.90532 17.8607 7.31113C17.8607 6.71685 17.378 6.23518 16.7824 6.23518C16.1869 6.23518 15.7041 6.71685 15.7041 7.31113C15.7041 7.90532 16.1869 8.38708 16.7824 8.38708Z" fill="#003349"/>
</svg>
