<svg width="24" height="25" viewBox="0 0 24 25" fill="none" xmlns="http://www.w3.org/2000/svg">
<path fill-rule="evenodd" clip-rule="evenodd" d="M10.3764 3.1222C11.1563 2.37958 12.2655 2.12876 13.312 2.09749C14.4188 2.08754 15.5251 2.09356 16.6318 2.094C16.6362 3.26152 16.6365 4.42948 16.6314 5.59696C15.9162 5.59569 15.2004 5.5987 14.4852 5.59569C14.0316 5.56744 13.5659 5.91123 13.4834 6.36084C13.4726 7.14205 13.4796 7.9237 13.48 8.70496C14.529 8.70928 15.5781 8.70365 16.627 8.70758C16.5502 9.83773 16.41 10.9627 16.2456 12.0834C15.319 12.092 14.3918 12.0825 13.4652 12.0882C13.457 15.4214 13.4696 18.7547 13.4588 22.0879C12.0825 22.0935 10.7053 22.0853 9.32908 22.0918C9.30301 18.7581 9.33121 15.4227 9.31476 12.0886C8.6433 12.0816 7.97146 12.0934 7.30005 12.083C7.30262 10.9623 7.30092 9.84176 7.30131 8.72152C7.97228 8.71331 8.64374 8.72326 9.31476 8.71676C9.33514 7.62734 9.29432 6.53666 9.33602 5.44817C9.4033 4.58613 9.73184 3.71764 10.3764 3.1222Z" fill="#003349"/>
</svg>
