<svg width="24" height="25" viewBox="0 0 24 25" fill="none" xmlns="http://www.w3.org/2000/svg">
<path fill-rule="evenodd" clip-rule="evenodd" d="M19.6441 6.66006C20.4915 6.15265 21.1401 5.34781 21.4475 4.39173C20.6527 4.86163 19.7754 5.20284 18.8405 5.38781C18.0919 4.58922 17.0271 4.0918 15.8461 4.0918C13.5803 4.0918 11.7431 5.92895 11.7431 8.19353C11.7431 8.51471 11.7793 8.8284 11.8493 9.12837C8.44 8.95712 5.41683 7.32369 3.39346 4.84163C3.03977 5.44654 2.83856 6.15137 2.83856 6.90376C2.83856 8.32725 3.56343 9.58327 4.66324 10.3181C3.99085 10.2956 3.35846 10.1107 2.80484 9.8032V9.85444C2.80484 11.8416 4.21958 13.5 6.09546 13.8775C5.75176 13.9699 5.38935 14.0212 5.01441 14.0212C4.74948 14.0212 4.49327 13.9949 4.24206 13.9449C4.76444 15.5759 6.27918 16.7619 8.07386 16.7944C6.67036 17.8942 4.90069 18.5478 2.97856 18.5478C2.64739 18.5478 2.32118 18.5278 2 18.4916C3.81591 19.6576 5.97176 20.3375 8.28882 20.3375C15.8361 20.3375 19.9616 14.0862 19.9616 8.66471L19.9479 8.13356C20.754 7.55863 21.4513 6.83627 22 6.01392C21.2639 6.3401 20.474 6.56131 19.6441 6.66006Z" fill="#003349"/>
</svg>
