<svg width="24" height="25" viewBox="0 0 24 25" fill="none" xmlns="http://www.w3.org/2000/svg">
<path fill-rule="evenodd" clip-rule="evenodd" d="M9.40948 15.1531V8.54752C11.5264 9.65205 13.6293 10.7492 15.7596 11.8605C13.6359 12.9619 11.532 14.0525 9.40948 15.1531ZM21.6291 7.33123C21.3845 6.26896 20.5157 5.48525 19.4697 5.36834C16.9928 5.09185 14.4858 5.0904 11.9903 5.09185C9.49443 5.0904 6.98701 5.09185 4.5101 5.36834C3.46474 5.48525 2.59649 6.26896 2.35196 7.33123C2.00392 8.84401 2 10.4954 2 12.0529C2 13.6106 2 15.2615 2.34804 16.7741C2.59216 17.8364 3.46062 18.6199 4.5066 18.7372C6.9833 19.0139 9.49052 19.0151 11.9864 19.0139C14.4827 19.0151 16.9893 19.0139 19.4658 18.7372C20.5111 18.6201 21.3802 17.8366 21.6247 16.7741C21.973 15.2613 21.9742 13.6104 21.9742 12.0529C21.9742 10.4954 21.9771 8.84401 21.6291 7.33123Z" fill="#003349"/>
</svg>
