<svg width="32" height="29" viewBox="0 0 32 29" fill="none" xmlns="http://www.w3.org/2000/svg">
<path fill-rule="evenodd" clip-rule="evenodd" d="M30 12.5945H6.28L13.54 3.87447V3.87447C14.2469 3.02395 14.1305 1.76139 13.28 1.05447C12.4295 0.347545 11.1669 0.463951 10.46 1.31447C10.46 1.31447 10.46 1.31447 10.46 1.31447L0.46 13.3145H0.46C0.392721 13.4099 0.332559 13.5102 0.28 13.6145C0.28 13.7145 0.28 13.7745 0.14 13.8745H0.14C0.049347 14.1038 0.0018822 14.3479 0 14.5945L2.6429e-08 14.5945C0.0018827 14.8411 0.0493478 15.0852 0.140001 15.3145C0.140001 15.4145 0.140001 15.4745 0.280001 15.5745V15.5745C0.33256 15.6788 0.392723 15.779 0.460001 15.8745L10.46 27.8745V27.8745C10.8407 28.3316 11.4051 28.5954 12 28.5945V28.5945C12.4673 28.5954 12.9202 28.4326 13.28 28.1345V28.1345C14.1303 27.4295 14.2482 26.1687 13.5432 25.3183C13.5421 25.317 13.5411 25.3157 13.54 25.3145L6.28 16.5945H30V16.5945C31.1046 16.5945 32 15.699 32 14.5945C32 13.4899 31.1046 12.5945 30 12.5945V12.5945Z" fill="#BDBDBD"/>
</svg>
