<svg width="32" height="29" viewBox="0 0 32 29" fill="none" xmlns="http://www.w3.org/2000/svg">
<path fill-rule="evenodd" clip-rule="evenodd" d="M2 16.5945H25.72L18.46 25.3145C17.7531 26.165 17.8695 27.4276 18.72 28.1345C19.5705 28.8414 20.8331 28.725 21.54 27.8745L31.54 15.8745C31.6073 15.779 31.6674 15.6788 31.72 15.5745C31.72 15.4745 31.82 15.4145 31.86 15.3145C31.9507 15.0852 31.9981 14.8411 32 14.5945V14.5945C31.9981 14.3479 31.9507 14.1038 31.86 13.8745C31.86 13.7745 31.76 13.7145 31.72 13.6145C31.6674 13.5102 31.6073 13.4099 31.54 13.3145L21.54 1.31448V1.31448C21.1593 0.857404 20.5949 0.593518 20 0.594486V0.594486C19.5327 0.593573 19.0798 0.756324 18.72 1.05449L18.72 1.05449C17.8697 1.75947 17.7518 3.0203 18.4568 3.87065C18.4579 3.87193 18.4589 3.87321 18.46 3.87449L25.72 12.5945H2C0.89543 12.5945 0 13.4899 0 14.5945C4.82822e-08 15.6991 0.89543 16.5945 2 16.5945L2 16.5945Z" fill="#003349"/>
</svg>
