<svg width="141" height="45" viewBox="0 0 141 45" fill="none" xmlns="http://www.w3.org/2000/svg">
<g clip-path="url(#clip0_3_68)">
<path fill-rule="evenodd" clip-rule="evenodd" d="M10.9424 12.7355C11.8477 12.7355 13.0036 13.0661 13.4341 14.0713C13.6166 14.4989 14.063 14.7586 14.5336 14.7586H17.7248C18.5026 14.7586 19.0827 14.0218 18.8578 13.2873C17.9578 10.3531 14.8006 8.49091 11.224 8.49091C5.91443 8.49091 3.01803 10.8709 3.01803 14.6789C3.01803 17.5352 4.74788 19.4789 7.48315 20.3915L10.3792 21.3437C11.8272 21.8195 12.4707 22.5338 12.4707 23.4063C12.4707 24.3186 11.5056 25.0329 9.97724 25.0329C8.55386 25.0329 7.04529 24.4699 6.60485 23.2252C6.44113 22.7624 5.99584 22.4543 5.49875 22.4543H2.07762C1.31748 22.4543 0.756609 23.1557 0.932935 23.8849C1.70856 27.0982 5.12058 29.1983 9.73575 29.1983C14.8038 29.1983 18.062 26.8577 18.062 22.9306C18.062 19.8758 16.0507 18.0509 12.8328 16.9798L10.4196 16.1866C9.49443 15.8692 8.6497 15.3138 8.6497 14.3223C8.6497 13.3303 9.57492 12.7355 10.9424 12.7355" fill="white"/>
<path fill-rule="evenodd" clip-rule="evenodd" d="M31.4162 28.7924H34.0993C34.9834 28.7924 35.7476 28.1587 35.9309 27.2726L39.5945 9.5835C39.7113 9.02057 39.292 8.49091 38.7301 8.49091H35.6013C34.893 8.49091 34.2814 8.99788 34.1341 9.70676L32.2447 18.804C31.4914 22.3772 29.7856 24.123 27.2867 24.123C25.1449 24.123 24.0343 22.4989 24.5898 19.7785L26.5877 9.97443C26.7438 9.20929 26.1729 8.49091 25.4097 8.49091H22.9157C22.0649 8.49091 21.3302 9.10075 21.1544 9.95251L19.1161 19.8193C18.1639 24.4479 20.5041 29.1983 25.2244 29.1983C27.644 29.1983 29.4682 28.183 30.6186 26.6809L30.4378 27.5566C30.3062 28.1931 30.7806 28.7924 31.4162 28.7924" fill="white"/>
<mask id="mask0_3_68" style="mask-type:alpha" maskUnits="userSpaceOnUse" x="58" y="-2" width="187" height="225">
<path fill-rule="evenodd" clip-rule="evenodd" d="M58.9711 -1.54294H244.862V222.215H58.9711V-1.54294Z" fill="#2D2B2C"/>
</mask>
<g mask="url(#mask0_3_68)">
<path fill-rule="evenodd" clip-rule="evenodd" d="M70.0867 13.4738C72.8261 13.4738 74.3742 15.2653 74.3742 18.1315C74.3742 21.7539 71.9132 24.4611 68.6972 24.4611C65.9578 24.4611 64.4097 22.6694 64.4097 19.8034C64.4097 16.2207 66.8712 13.4738 70.0867 13.4738ZM66.7518 29.1983C69.314 29.1983 71.0888 28.2774 72.1064 27.3623C72.1947 27.2826 72.3307 27.3623 72.3059 27.4785C72.1649 28.1382 72.6663 28.7605 73.3393 28.7605H76.6532C77.1529 28.7605 77.5845 28.4092 77.6873 27.919L83.2565 1.21613C83.3953 0.557189 82.8939 -0.0622253 82.2227 -0.0622253H78.9463C78.4452 -0.0622253 78.0135 0.290244 77.9116 0.781898L76.0743 9.84314C75.929 10.544 75.0902 10.8209 74.5484 10.3546C73.4334 9.39373 71.668 8.53743 69.4119 8.53743C63.4173 8.53743 58.9711 13.5136 58.9711 20.3609C58.9711 25.3766 62.1468 29.1983 66.7518 29.1983Z" fill="white"/>
</g>
<path fill-rule="evenodd" clip-rule="evenodd" d="M91.9405 13.4782C94.7406 13.4782 96.3229 15.2339 96.3229 18.1061C96.3229 21.737 93.8074 24.4902 90.5204 24.4902C87.7202 24.4902 86.1378 22.6945 86.1378 19.8217C86.1378 16.1911 88.6539 13.4782 91.9405 13.4782ZM88.5318 29.1983C91.0929 29.1983 92.8843 28.3469 93.9349 27.4573C94.0501 27.3595 94.2246 27.4568 94.1941 27.6031V27.6039C94.0573 28.2625 94.5687 28.8788 95.2525 28.8788H98.6128C99.1232 28.8788 99.5636 28.5278 99.6698 28.0368L103.513 10.212C103.656 9.55145 103.143 8.92973 102.456 8.92973H99.1134C98.5993 8.92973 98.1567 9.28571 98.0546 9.78073L97.7415 11.2982C97.7139 11.4336 97.536 11.4655 97.4563 11.3515C96.5792 10.0999 94.3755 8.49091 91.2507 8.49091C85.1234 8.49091 80.5788 13.5178 80.5788 20.3407C80.5788 25.3678 83.8249 29.1983 88.5318 29.1983" fill="white"/>
<path fill-rule="evenodd" clip-rule="evenodd" d="M108.066 27.7413L102.816 35.6491C102.346 36.3571 102.856 37.3012 103.708 37.3012H107.247C107.607 37.3012 107.944 37.1204 108.141 36.8205L125.418 10.59C125.884 9.88169 125.374 8.94107 124.523 8.94107H120.827C120.46 8.94107 120.119 9.1282 119.922 9.43675L111.882 22.1012L109.327 9.79061C109.224 9.29584 108.787 8.94107 108.279 8.94107H105.033C104.345 8.94107 103.836 9.57887 103.991 10.2464L108.066 27.7413Z" fill="white"/>
<mask id="mask1_3_68" style="mask-type:alpha" maskUnits="userSpaceOnUse" x="122" y="7" width="139" height="159">
<path fill-rule="evenodd" clip-rule="evenodd" d="M122.894 7.01013H260.591V165.362H122.894V7.01013Z" fill="#2D2B2C"/>
</mask>
<g mask="url(#mask1_3_68)">
<path fill-rule="evenodd" clip-rule="evenodd" d="M140.861 13.418C140.019 10.4089 136.831 8.49094 133.214 8.49094C127.921 8.49094 125.034 10.8712 125.034 14.6792C125.034 17.5357 126.759 19.4794 129.485 20.392L132.372 21.3439C133.815 21.82 134.457 22.534 134.457 23.4066C134.457 24.3189 133.494 25.0329 131.971 25.0329C130.528 25.0329 128.996 24.4502 128.588 23.1593C128.452 22.7313 128.031 22.4545 127.577 22.4545H123.966C123.299 22.4545 122.781 23.0556 122.915 23.7022C123.601 27.0184 127.043 29.1983 131.73 29.1983C136.782 29.1983 140.03 26.8577 140.03 22.9306C140.03 19.8763 138.025 18.0514 134.817 16.9803L132.412 16.1866C131.49 15.8694 130.648 15.3143 130.648 14.3223C130.648 13.3306 131.57 12.7356 132.933 12.7356C133.836 12.7356 134.988 13.0661 135.417 14.0717C135.59 14.4779 135.971 14.7586 136.417 14.7586H139.831C140.537 14.7586 141.05 14.0918 140.861 13.418Z" fill="white"/>
</g>
<path fill-rule="evenodd" clip-rule="evenodd" d="M58.2846 17.4198L56.0917 28.0423C56.0081 28.4538 55.6534 28.7481 55.2429 28.7481H51.5886C51.0358 28.7481 50.6241 28.2271 50.7383 27.6744L52.7758 17.8253C53.4106 14.822 52.2614 13.0351 49.9218 13.0351C47.386 13.0351 45.4832 14.78 44.6902 18.6376L42.7362 28.0437C42.6512 28.4538 42.2964 28.7481 41.8876 28.7481H38.2316C37.6791 28.7481 37.2671 28.2271 37.383 27.6744L41.2161 9.15186C41.3012 8.74041 41.6544 8.44607 42.0647 8.44607H46.1575C46.4844 8.44607 46.7277 8.75543 46.6603 9.08288C46.568 9.5273 47.059 9.86073 47.4195 9.5949C48.695 8.65486 50.3763 8.04074 52.2218 8.04074C52.6146 8.04074 52.9899 8.0737 53.3476 8.13241C56.4729 8.63386 58.2274 11.2377 58.4869 14.361C58.5689 15.3461 58.503 16.3821 58.2846 17.4198Z" fill="white"/>
<mask id="mask2_3_68" style="mask-type:alpha" maskUnits="userSpaceOnUse" x="0" y="29" width="35" height="98">
<path fill-rule="evenodd" clip-rule="evenodd" d="M-3.8147e-06 29.9683H34.4242V126.356H-3.8147e-06V29.9683Z" fill="#2D2B2C"/>
</mask>
<g mask="url(#mask2_3_68)">
<path fill-rule="evenodd" clip-rule="evenodd" d="M2.08661 32.6663C2.08661 31.9992 2.62868 31.4491 3.30234 31.4491C3.95953 31.4491 4.5016 31.9992 4.5016 32.6663C4.5016 33.3498 3.95953 33.9 3.30234 33.9C2.62868 33.9 2.08661 33.3498 2.08661 32.6663ZM1.74155 35.7172H3.5489L1.80712 44.0536H-8.01086e-05L1.74155 35.7172Z" fill="white"/>
</g>
<path fill-rule="evenodd" clip-rule="evenodd" d="M7.14877 35.6682H8.9617L8.74741 36.6578C9.37374 35.8863 10.3294 35.5006 11.3184 35.5006C13.2959 35.5006 14.2848 37.2614 13.8563 39.2907L12.8509 44.0536H11.0382L12.0105 39.3914C12.307 37.9993 11.7468 37.1776 10.6426 37.1776C9.45603 37.1776 8.46721 37.9993 8.10471 39.7603L7.21469 44.0536H5.40192L7.14877 35.6682Z" fill="white"/>
<path fill-rule="evenodd" clip-rule="evenodd" d="M16.6559 41.3889H18.5313C18.5811 42.2113 19.3446 42.6062 20.1744 42.6062C20.9211 42.6062 21.502 42.2113 21.502 41.7014C21.502 41.1916 21.17 40.8463 20.4565 40.5994L19.4772 40.2541C18.415 39.8757 17.6683 39.1192 17.6683 37.9512C17.6683 36.4217 18.8632 35.5006 20.7884 35.5006C22.4977 35.5006 23.7923 36.6026 23.8585 37.9679H22.033C21.95 37.2935 21.3692 36.948 20.7054 36.948C20.0582 36.948 19.5269 37.2935 19.5269 37.8033C19.5269 38.3296 19.859 38.6093 20.3901 38.8067L21.2695 39.1192C22.4977 39.5632 23.3441 40.2541 23.3441 41.537C23.3441 43.0831 22.0829 44.0536 20.0914 44.0536C18.0833 44.0536 16.6726 42.9844 16.6559 41.3889" fill="white"/>
<path fill-rule="evenodd" clip-rule="evenodd" d="M26.207 40.2634L27.2324 35.5006H29.0816L28.0729 40.2467C27.7872 41.5548 28.342 42.3598 29.4008 42.3598C30.5944 42.3598 31.5358 41.5212 31.8888 39.8441L32.8132 35.5006H34.6624L32.8806 43.8858H31.0314L31.2333 42.8964C30.6448 43.6511 29.7876 44.0536 28.7958 44.0536C26.8288 44.0536 25.77 42.276 26.207 40.2634" fill="white"/>
<path fill-rule="evenodd" clip-rule="evenodd" d="M38.626 35.5851H40.4037L40.1127 36.9571C40.5976 35.9748 41.5994 35.5006 42.5528 35.5006C42.779 35.5006 42.9891 35.5174 43.2154 35.5683L42.8438 37.4822C42.5528 37.3804 42.2944 37.3296 42.0035 37.3296C40.9693 37.3296 39.8704 38.2273 39.5148 39.921L38.6907 44.0536H36.9132L38.626 35.5851Z" fill="white"/>
<path fill-rule="evenodd" clip-rule="evenodd" d="M51.1037 39.4063C51.1037 37.9725 50.3084 37.1486 49.0676 37.1486C47.5565 37.1486 46.3316 38.4175 46.3316 40.1973C46.3316 41.6311 47.127 42.455 48.3519 42.455C49.8788 42.455 51.1037 41.1861 51.1037 39.4063M44.5659 40.3455C44.5659 37.6099 46.3635 35.5006 48.9244 35.5006C50.2923 35.5006 51.2469 36.308 51.5491 36.9837L51.8196 35.6651H53.5691L51.8831 43.9053H50.1333L50.3242 43.0154C49.863 43.5758 48.9403 44.0536 47.8427 44.0536C45.9815 44.0536 44.5659 42.554 44.5659 40.3455" fill="white"/>
<path fill-rule="evenodd" clip-rule="evenodd" d="M57.5668 35.6682H59.3797L59.1654 36.6578C59.7918 35.8863 60.7474 35.5006 61.7364 35.5006C63.7139 35.5006 64.7028 37.2614 64.2743 39.2907L63.2689 44.0536H61.4562L62.4285 39.3914C62.725 37.9993 62.1648 37.1776 61.0606 37.1776C59.874 37.1776 58.8852 37.9993 58.5227 39.7603L57.6327 44.0536H55.8199L57.5668 35.6682Z" fill="white"/>
<mask id="mask3_3_68" style="mask-type:alpha" maskUnits="userSpaceOnUse" x="67" y="34" width="66" height="66">
<path fill-rule="evenodd" clip-rule="evenodd" d="M67.0739 34.0198H132.48V99.4258H67.0739V34.0198Z" fill="#2D2B2C"/>
</mask>
<g mask="url(#mask3_3_68)">
<path fill-rule="evenodd" clip-rule="evenodd" d="M67.0739 40.1059C67.0739 37.573 68.8833 35.5006 71.7124 35.5006C73.9822 35.5006 75.3144 36.9315 75.627 38.675H73.7192C73.423 37.7375 72.6498 37.1454 71.5808 37.1454C70.0346 37.1454 68.9163 38.4118 68.9163 39.9579C68.9163 41.4548 69.7879 42.4252 71.1859 42.4252C72.2552 42.4252 73.127 41.7837 73.5546 40.879H75.4626C74.9198 42.7377 73.4065 44.0537 71.038 44.0537C68.4391 44.0537 67.0739 42.162 67.0739 40.1059Z" fill="white"/>
</g>
<path fill-rule="evenodd" clip-rule="evenodd" d="M79.8183 38.9383H84.519C84.4519 37.6882 83.5653 37.0138 82.3944 37.0138C81.2902 37.0138 80.1695 37.6554 79.8183 38.9383ZM77.8778 40.1718C77.8778 37.5401 79.7346 35.5006 82.5784 35.5006C85.0375 35.5006 86.8608 37.2605 86.3423 40.2212H79.6343C79.6677 41.5535 80.6045 42.4581 81.8925 42.4581C82.8126 42.4581 83.6825 42.0963 84.1341 41.3068H86.0912C85.3887 43.0174 83.95 44.0536 81.7756 44.0536C79.4502 44.0536 77.8778 42.376 77.8778 40.1718Z" fill="white"/>
</g>
<defs>
<clipPath id="clip0_3_68">
<rect width="140.9" height="44.1159" fill="white"/>
</clipPath>
</defs>
</svg>
