<?xml version="1.0" encoding="UTF-8"?><svg id="Layer_2" xmlns="http://www.w3.org/2000/svg" viewBox="0 0 60.79 37.81"><defs><style>.cls-1{fill:#1f3447;}</style></defs><g id="Layer_1-2"><path class="cls-1" d="m42.27,12.99c.12,2.99.91,5.19,3.48,5.89,1.89-3.54,3.23-7.05,3.74-9.6,1.86-9.24-7.55-4.24-7.22,3.71m18.52,6.71s-4.43,3.47-12.66,3.65c-.19,0-6.32,12.27-15.37,14.26-8.2,1.8-6.13-9.25-6.13-9.25,0,0-6.37,6.41-10.59,8.24-7.88,3.42-11.17-1.13-8.17-6.2,1.8-3.03,5.9-7.59,5.9-7.59-8.48,4.35-13.76-.69-13.76-.69l3.67-3.41s1.28,1.4,4.15,1.4c3.69,0,7.28-3.41,8.14-4.28.09-.09.18-.18.26-.28.46-.53,3.23-3.5,5.59-1.22,2.81,2.71-4.05,9.44-8.21,14.98-2.06,2.74-1.6,5.46,2.92,2.28,7.45-5.25,12.82-12.69,12.82-12.69l3.71,1.82s-4.68,12.52-.61,12.52c3.15,0,7.52-4.87,11.08-10.54-11.24-3.81-4.53-25.09,6.36-22.49,7.46,1.78,3.56,12.63.57,18.88,0,0,2.96.36,8.93-3.21l1.41,3.81Z"/></g></svg>