<?xml version="1.0" encoding="UTF-8"?><svg id="Layer_2" xmlns="http://www.w3.org/2000/svg" viewBox="0 0 73.2 49.73"><defs><style>.cls-1{fill:#fff;}</style></defs><g id="Layer_1-2"><g><path class="cls-1" d="m71.43,17.46c-2.16-2.94-6.01-4.1-11.46-3.47C52.67,3.63,39.99-1.67,27.46.47,9.53,3.52-2.58,20.59.47,38.52c.74,4.35,2.48,7.06,3.81,8.57,1.45,1.64,3.09,2.64,4.31,2.64.12,0,.23,0,.34-.03l53.92-9.17c2.79-.47,5.18-2.18,6.58-4.69,4.18-7.52,4.93-14.4,2-18.38ZM27.88,2.93c1.7-.29,3.41-.43,5.1-.43,9.42,0,18.42,4.38,24.22,11.94-.07.01-.13.03-.2.04-4.5.94-8.84,3.12-12.89,6.44C37.76,7.43,27.8,4.87,21.16,4.88c2.13-.89,4.38-1.56,6.72-1.95ZM8.59,47.23c-.85-.06-4.55-2.62-5.66-9.13-1.37-8.03.48-16.11,5.19-22.75,2-2.83,4.43-5.24,7.16-7.2,1.81-.58,18.1-5.09,26.87,14.48-2.55,2.38-4.98,5.23-7.23,8.52-3.86,5.66-6.1,10.92-6.82,12.76l-19.51,3.32Zm58.65-12.61c-1.02,1.84-2.78,3.09-4.81,3.44l-31.41,5.35c2.6-5.98,11.36-23.33,26.48-26.49,1.9-.4,3.62-.59,5.13-.59,3.2,0,5.5.88,6.78,2.61,2.27,3.08,1.42,9.24-2.17,15.69Z"/><path class="cls-1" d="m37.38,22.72l-1.33-1.85c-2.7,2.81-4.35,3.05-4.35,3.05.69-3.82,1.19-10.25-3.11-10.11-6.26.21-6.73,12.7-.1,13.09-1.08,3.59-2.72,6.87-4.42,7.33-2.2.6-1.52-6.85-1.52-6.85l-2.27-.43s-1.8,4.81-5.04,8.75c-1.97,2.39-2.62.98-1.91-.8,1.43-3.61,4.13-8.26,2.21-9.31-1.61-.88-2.67,1.13-2.84,1.49-.03.07-.06.13-.1.19-.34.6-1.77,2.97-3.76,3.52-1.55.43-2.45-.14-2.45-.14l-1.48,2.39s3.6,1.94,7.53-1.67c0,0-1.54,3.07-2.06,4.97-.87,3.18,1.58,5.15,5.33,2.14,2.01-1.61,4.49-6.02,4.49-6.02,0,0,.52,6.27,4.68,4.09,4.59-2.41,6.08-9.95,6.19-9.98,4.42-1.32,6.3-3.85,6.3-3.85Zm-8.24,1.78c-1.49,0-2.24-1.07-2.75-2.66-1.35-4.24,2.99-8.34,3.35-3.07.1,1.45-.1,3.54-.6,5.74Z"/></g></g></svg>