<?xml version="1.0" encoding="UTF-8"?><svg id="Layer_2" xmlns="http://www.w3.org/2000/svg" viewBox="0 0 39.42 62.44"><defs><style>.cls-1{fill:#5e438f;}</style></defs><g id="Layer_1-2"><path class="cls-1" d="m33.16.1c-2.75-.59-5.75,1.34-8.7,5.59-1.07-3.25-2.7-5.13-4.85-5.59-3.19-.69-6.81,2.12-10.16,7.9-3.11,5.36-5.77,12.77-7.51,20.86-3.23,15.08-2.82,31.94,4.33,33.48,2.71.58,5.77-1.37,8.69-5.59,1.07,3.25,2.7,5.13,4.86,5.59.32.07.66.1.99.1,6.81,0,13.68-14.87,16.68-28.86C40.72,18.49,40.3,1.64,33.16.1Zm-9.5,42.32c.76-7.94.02-16.53-2.85-16.8-.82-.08-1.54.5-2.17,1.41,1.66-6.88,4-13.1,6.67-17.69,2.65-4.57,5.35-7.04,7.3-6.63,3.43.74,6.22,11.96,2.28,30.32-1.71,7.98-4.3,15.18-7.28,20.25-2.62,4.46-5.33,6.87-7.23,6.46-.66-.14-1.3-.66-1.86-1.52,2.5-1.17,4.44-8.47,5.14-15.8ZM6.82,59.74c-.67-.14-1.28-.65-1.84-1.49,2-1.79,3.84-7.93,4.55-15.4.41-4.28.38-8.35-.08-11.46-.5-3.42-1.44-5.21-2.77-5.34-.51-.05-1.01.16-1.5.62,1.66-6.74,3.96-12.82,6.58-17.33,2.65-4.57,5.36-7.05,7.3-6.63,1.51.32,2.78,2.54,3.51,6.08-2.92,5.28-5.42,12.4-7.07,20.08-1.91,8.9-2.42,17.95-1.39,24.27-2.64,4.54-5.36,7-7.28,6.6Zm7.73-6.38h0l-.15-.09h.04s.11.09.11.09h0,0Z"/></g></svg>