<?xml version="1.0" encoding="UTF-8"?><svg id="Layer_2" xmlns="http://www.w3.org/2000/svg" viewBox="0 0 76.06 45.88"><defs><style>.cls-1{fill:#5e438f;}</style></defs><g id="Layer_1-2"><path class="cls-1" d="m73.56,4.49c0,1.93-.51,4.64-1.42,7.43-6.1,18.78-15.51,31.41-20.5,31.46-.79,0-1.42-.36-1.96-1.1-.81-1.12-1.37-3.12-1.56-5.88,4.37-6.36,8.47-15.11,11.27-23.71,1.37-4.23,2.28-9.51.71-11.68-.48-.65-1.16-1.02-1.93-1.02-1.43,0-2.93,1.31-4.31,3.28l-.04-.03c-1.54,2.2-3.04,5.36-4.12,8.67-.27.84-.53,1.68-.78,2.51-.12.38-.22.76-.33,1.14-.12.42-.24.84-.36,1.26-.14.52-.27,1.03-.41,1.55-.06.25-.13.5-.19.75-.15.62-.3,1.23-.43,1.84-.01.06-.03.13-.05.2-.01.06-.02.11-.04.17-.14.62-.27,1.23-.39,1.84,0,.02,0,.04-.01.06-.35,1.75-.62,3.44-.82,5.05-.03.24-.06.49-.09.73-.04.32-.07.64-.1.95-.04.39-.07.78-.1,1.17-.02.22-.03.44-.05.65-.03.54-.06,1.08-.07,1.59,0,.06,0,.13,0,.19-.02.79,0,1.55.03,2.28-3.45,4.8-6.73,7.53-9.04,7.53-.8,0-1.43-.35-1.98-1.11-.81-1.12-1.37-3.12-1.56-5.88,4.37-6.36,8.47-15.11,11.27-23.71,1.37-4.22,2.28-9.51.71-11.68-.48-.65-1.16-1.02-1.93-1.02-3.12,0-6.54,6.18-8.41,11.92-3.02,9.29-4.44,17.72-4.18,23.86-3.48,4.85-6.77,7.61-9.1,7.61-.8,0-1.43-.35-1.98-1.11-.81-1.12-1.37-3.12-1.56-5.88,4.37-6.36,8.47-15.11,11.27-23.71,1.37-4.23,2.28-9.51.71-11.68-.48-.65-1.16-1.02-1.93-1.02-3.12,0-6.54,6.18-8.41,11.92-3.02,9.29-4.44,17.72-4.18,23.86-3.48,4.85-6.77,7.61-9.1,7.61-.19,0-.38-.02-.55-.06-.06-.01-.11-.04-.16-.06-.12-.04-.23-.08-.34-.13-.06-.03-.12-.08-.18-.13-.09-.06-.18-.12-.27-.2-.06-.06-.13-.13-.19-.2-.08-.08-.15-.17-.23-.26-.06-.08-.11-.16-.17-.25-.09-.14-.18-.28-.26-.44-.04-.07-.07-.15-.11-.22-.1-.2-.19-.41-.27-.65-.02-.05-.04-.11-.06-.17-.09-.27-.18-.57-.26-.88,0-.04-.02-.07-.03-.11-.08-.34-.16-.71-.22-1.1,0-.03-.01-.05-.01-.08-.06-.4-.12-.82-.16-1.26-.03-.33-.05-.68-.07-1.03,0-.07-.01-.14-.01-.21-.18-3.8.34-8.77,1.56-14.25.15-.65.3-1.31.47-1.97.04-.15.08-.3.11-.46.14-.55.29-1.11.44-1.67.1-.37.2-.74.31-1.11.12-.41.23-.83.36-1.25.25-.84.51-1.68.79-2.55,1-3.08,2.38-6,3.79-8l-2.05-1.44c-1.54,2.2-3.04,5.36-4.12,8.67-.27.84-.53,1.68-.78,2.51-.12.39-.22.77-.33,1.15-.12.42-.24.84-.36,1.26-.14.51-.27,1.01-.4,1.51-.07.27-.14.54-.2.8-.15.59-.28,1.18-.42,1.76-.02.08-.04.17-.06.25-.02.07-.03.14-.05.22-.13.59-.25,1.17-.37,1.75-.01.06-.02.12-.04.18-.33,1.69-.6,3.32-.79,4.87-.04.28-.07.57-.11.84-.03.3-.06.6-.09.89-.04.42-.08.83-.11,1.23-.01.2-.03.41-.04.61-.04.57-.06,1.12-.07,1.65,0,.05,0,.1,0,.14-.03,1.29.01,2.5.11,3.61,0,.01,0,.03,0,.04.05.53.11,1.04.19,1.53,0,.04.01.09.02.13.08.49.18.97.29,1.42,0,0,0,0,0,0,.12.46.25.9.39,1.3,0,.03.02.05.03.08.13.34.27.66.42.96.05.1.1.2.16.3.12.22.25.43.39.63.04.06.07.13.11.18.04.05.08.1.12.15.02.03.04.07.07.1.04.05.08.09.12.13.06.07.12.14.18.2.07.08.15.16.23.23.07.06.13.12.2.18.08.07.16.13.24.19.07.06.14.11.22.16.08.05.16.1.24.15.08.05.16.1.24.14.08.04.17.08.25.12.08.04.17.08.25.11.09.03.18.06.27.09.08.03.17.05.25.07.11.03.22.04.33.06.07.01.14.03.22.04.19.02.38.03.57.03,2.94,0,6.23-2.53,9.48-6.57.35,1.83.9,3.34,1.7,4.43,1.02,1.4,2.4,2.14,4,2.14,2.94,0,6.23-2.53,9.48-6.57.35,1.83.9,3.34,1.7,4.43,1.02,1.4,2.4,2.14,4,2.14,2.92,0,6.2-2.5,9.42-6.5.06.31.13.6.2.89,0,0,0,.01,0,.02.12.46.25.89.39,1.3.01.03.03.06.04.09.13.34.26.65.41.95.05.1.11.2.16.3.12.22.25.43.38.62.04.06.07.13.11.19.04.05.08.1.12.15.02.03.04.06.06.09.04.04.07.08.11.13.06.07.13.15.19.21.07.08.15.15.22.22.07.06.14.13.21.19.08.06.15.12.23.18.07.06.15.11.22.16.08.05.16.1.24.15.08.05.16.1.24.14.08.04.17.08.25.11s.17.08.25.11c.09.03.18.06.28.09.08.02.17.05.25.07.11.03.22.04.33.06.07.01.14.03.21.04.19.02.38.03.57.03,0,0,.02,0,.02,0,0,0,.02,0,.03,0h0c7.58-.08,17.57-16.91,22.86-33.19,1-3.08,1.55-5.99,1.54-8.21h-2.5ZM21.78,12.69c2.08-6.39,4.96-9.99,5.96-10.18.5.64.68,3.98-1.08,9.41-2.57,7.9-5.72,14.71-8.89,19.96.3-5,1.51-11.48,4.01-19.18Zm15.18,0c2.08-6.39,4.96-9.99,5.96-10.18.5.64.68,3.98-1.08,9.41-2.57,7.9-5.72,14.71-8.89,19.96.3-5,1.51-11.48,4.01-19.18ZM58.1,2.51c.5.64.68,3.98-1.08,9.41-2.57,7.9-5.72,14.71-8.89,19.96.3-5,1.51-11.48,4.01-19.18,2.08-6.39,4.96-9.99,5.96-10.18Z"/></g></svg>