<?xml version="1.0" encoding="UTF-8"?><svg id="Layer_2" xmlns="http://www.w3.org/2000/svg" viewBox="0 0 238.27 141.65"><defs><style>.cls-1{fill:#7c00de;}</style></defs><g id="Layer_1-2"><path class="cls-1" d="m226.52,65.88c-9.28-9.64-22.85-15.17-37.22-15.17v5.67c12.83,0,24.91,4.9,33.13,13.44,7.01,7.28,10.52,16.44,10.14,26.47-.81,21.42-18.23,38.84-39.66,39.66-11.35.44-22.09-3.66-30.25-11.51-8.16-7.86-12.66-18.43-12.66-29.76v-.11c0-.06-.21-6.12,1.95-12.85,2.55-7.98,7.19-13.46,13.79-16.32,4.26,19.73,12.9,39.1,20.54,42.93,2.37,1.19,4.75,1.04,6.71-.42l.18-.15c7.57-6.67,3.33-24.75,2.84-26.75-.14-.61-3.63-15.03-13.98-20.72-3.65-2.01-7.64-2.69-11.93-2.05-.86-5.16-1.36-10.32-1.36-15.21.13-5.7,1.47-21.12,6.02-26.81,4.55-.51,14.53-.61,19.23,3.69,2,1.83,2.88,4.33,2.68,7.68-.44,10.01-12.09,11.96-12.58,12.03l.85,5.61c5.79-.87,16.88-5.63,17.39-17.35.3-5.05-1.22-9.14-4.52-12.15-8.1-7.4-24.2-5.09-24.88-4.99l-.92.14-.66.66c-3.94,3.94-6.01,11.68-7.09,18.52-12.37.08-55.71,1.6-70,2.88l-3.39-19.95-3.13,1.04c-16.72,5.53-22.96,3.65-25.19,2.04-1.64-1.18-1.69-2.67-1.69-2.77v-.17s0-.17,0-.17c-.19-2.95-.41-6.3,9.78-7.23,11.09-1.01,29.98,7.57,30.17,7.65l2.36-5.15c-.83-.38-20.44-9.3-33.04-8.15-13.95,1.27-15.23,8.06-14.93,13.12,0,.98.25,4.56,3.81,7.28,5.07,3.87,14.27,3.83,27.38-.1l2.32,13.67c-7.31,3.32-17.42,12.96-18.88,14.37-1.04.9-2.25,2.06-3.57,3.42-5.89-2.66-12.41-4.16-19.29-4.16C21.07,47.71,0,68.78,0,94.68s21.07,46.97,46.97,46.97,46.97-21.07,46.97-46.97c0-16.91-8.99-31.76-22.44-40.03.78-.77,1.5-1.44,2.1-1.96l.12-.11c2.86-2.77,10.53-9.67,15.98-12.66l7.29,42.93c.13,1.35,1.03,8.91,5.49,12.63,1.63,1.36,3.58,2.07,5.67,2.07h.02c.43.15.92.24,1.48.24,2.88,0,7.52-2.42,14.99-10.64l38.6-39.49c.23,3.89.7,7.95,1.41,12.07-20.58,7.92-20.35,33.33-20.31,34.99,0,12.87,5.12,24.88,14.4,33.81,8.84,8.51,20.33,13.13,32.55,13.13.61,0,1.23-.01,1.85-.04,24.37-.93,44.18-20.74,45.11-45.11.44-11.61-3.61-22.2-11.72-30.62Zm-47.24-.64c8.13,4.46,11.18,16.94,11.22,17.1,1.58,6.36,2.68,17.62-.97,21.07-.1.06-.27.07-.71-.15-5.27-2.64-13.58-20.38-17.66-39.44,2.96-.41,5.64.07,8.12,1.43ZM46.97,135.98c-22.77,0-41.3-18.53-41.3-41.3s18.53-41.3,41.3-41.3c5.38,0,10.52,1.05,15.24,2.93-9.89,11.53-21.96,30.6-16.48,44.39.65,1.63,1.71,3.03,3.09,4.06,3.1,2.31,6.78,3.23,10.68,3.23,10.38,0,22.27-6.51,28.67-10.56-1.42,21.5-19.35,38.56-41.2,38.56Zm41.1-45.28c-8.1,5.66-26.96,16.15-35.86,9.51-.52-.39-.95-.96-1.21-1.61-3.07-7.71,1.57-18.12,6-25.48,3.26-5.43,7.14-10.4,10.52-14.24,11.3,6.51,19.25,18.21,20.55,31.82Zm32.47-7.48l-.07.08c-6.36,7.01-9.48,8.42-10.45,8.7l-.29-.25-1.21.12c-.95.09-1.69-.13-2.41-.73-2.39-1.99-3.34-7.22-3.49-8.89l-7.42-43.69c13.67-1.17,55.24-2.7,68.33-2.81-.14,1.42-.24,2.71-.31,3.8l-42.69,43.68Z"/></g></svg>