<svg width="558" height="112" viewBox="0 0 558 112" fill="none" xmlns="http://www.w3.org/2000/svg">
<g clip-path="url(#clip0_28_27)">
<path d="M296.43 47.73V43.32H306.75V47.73H296.43ZM302.75 38.34C302.245 38.3797 301.738 38.3111 301.262 38.1386C300.786 37.9661 300.352 37.6938 299.99 37.34C299.463 36.8382 299.106 36.1841 298.969 35.4693C298.831 34.7545 298.921 34.0147 299.225 33.3535C299.53 32.6923 300.033 32.1427 300.665 31.7816C301.297 31.4206 302.026 31.2662 302.75 31.34C303.678 31.34 304.569 31.7087 305.225 32.3651C305.881 33.0215 306.25 33.9117 306.25 34.84C306.25 35.7682 305.881 36.6585 305.225 37.3149C304.569 37.9713 303.678 38.34 302.75 38.34V38.34ZM301.18 74.34V43.34H306.75V74.34H301.18Z" fill="#003349"/>
<path d="M314.93 74.29V43.29H319.34V56.58H318.64C318.571 53.9414 318.995 51.3131 319.89 48.83C320.613 46.8633 321.944 45.1783 323.69 44.02C325.63 42.8545 327.868 42.2811 330.13 42.37H330.36C334.26 42.37 337.15 43.5866 339.03 46.02C340.91 48.4533 341.847 51.9733 341.84 56.58V74.27H336.27V55.44C336.384 53.3291 335.666 51.2576 334.27 49.67C333.552 48.9321 332.684 48.3559 331.725 47.98C330.766 47.6041 329.738 47.437 328.71 47.49C327.621 47.4437 326.535 47.6202 325.517 48.0089C324.499 48.3975 323.571 48.99 322.79 49.75C322.027 50.5454 321.434 51.4872 321.045 52.5184C320.657 53.5497 320.481 54.6491 320.53 55.75V74.26L314.93 74.29Z" fill="#003349"/>
<path d="M359.24 75.21C355.18 75.21 352.04 74.3433 349.82 72.61C348.73 71.7697 347.85 70.6869 347.252 69.4475C346.653 68.2082 346.351 66.8463 346.37 65.47H351.59C351.727 66.7956 352.381 68.0137 353.41 68.86C354.55 69.93 356.5 70.46 359.24 70.46C361.247 70.592 363.242 70.073 364.93 68.98C365.535 68.5851 366.034 68.0476 366.383 67.4146C366.732 66.7816 366.92 66.0726 366.93 65.35C366.956 64.769 366.837 64.1906 366.584 63.667C366.331 63.1433 365.951 62.6908 365.48 62.35C364.06 61.4843 362.442 60.9956 360.78 60.93L357.42 60.58C354.819 60.3968 352.323 59.4816 350.22 57.94C349.302 57.2156 348.571 56.2821 348.087 55.2174C347.604 54.1528 347.382 52.9879 347.44 51.82C347.389 50.0122 347.918 48.2355 348.95 46.75C350.002 45.2912 351.449 44.1636 353.12 43.5C355.072 42.7108 357.165 42.3264 359.27 42.37C362.267 42.2317 365.232 43.0437 367.74 44.69C368.824 45.4758 369.697 46.5163 370.283 47.7197C370.869 48.9232 371.15 50.2524 371.1 51.59H365.88C365.854 50.9678 365.687 50.3598 365.391 49.8122C365.094 49.2645 364.677 48.7918 364.17 48.43C362.677 47.5623 360.982 47.1052 359.255 47.1052C357.528 47.1052 355.833 47.5623 354.34 48.43C353.814 48.8168 353.387 49.3232 353.095 49.9074C352.803 50.4916 352.654 51.1369 352.66 51.79C352.639 52.3128 352.734 52.8337 352.94 53.3147C353.146 53.7957 353.457 54.2246 353.85 54.57C354.989 55.4001 356.352 55.8671 357.76 55.91L361.13 56.26C363.995 56.4424 366.758 57.3922 369.13 59.01C370.109 59.7303 370.896 60.6813 371.419 61.7786C371.943 62.8759 372.187 64.0856 372.13 65.3C372.161 67.1498 371.577 68.9576 370.47 70.44C369.294 71.9877 367.722 73.1898 365.92 73.92C363.805 74.8016 361.531 75.2406 359.24 75.21Z" fill="#003349"/>
<path d="M388 75.21C384.333 75.21 381.51 74.0133 379.53 71.62C377.55 69.2267 376.55 65.7667 376.53 61.24V43.24H382.1V62.32C381.987 64.4127 382.706 66.4652 384.1 68.03C384.797 68.7266 385.633 69.2698 386.552 69.6245C387.472 69.9793 388.455 70.1378 389.44 70.09C390.489 70.1297 391.536 69.9521 392.513 69.5684C393.49 69.1846 394.378 68.603 395.12 67.86C395.88 67.0401 396.467 66.0758 396.846 65.0244C397.226 63.9731 397.391 62.8562 397.33 61.74V43.24H402.9V74.24H398.49V61H399.18C399.258 63.6269 398.858 66.246 398 68.73C397.313 70.6684 396.046 72.348 394.37 73.54C392.547 74.7031 390.411 75.279 388.25 75.19L388 75.21Z" fill="#003349"/>
<path d="M411.09 74.29V43.29H415.5V56.05H415.27C415.27 51.53 416.27 48.2167 418.27 46.11C420.27 44.0033 423.27 42.95 427.27 42.95H428.27V47.95H426.27C423.17 47.95 420.8 48.78 419.13 50.42C417.46 52.06 416.64 54.42 416.64 57.52V74.29H411.09Z" fill="#003349"/>
<path d="M440.9 75.1C438.837 75.1505 436.788 74.7441 434.9 73.91C433.286 73.1817 431.932 71.9781 431.02 70.46C430.071 68.8039 429.597 66.9181 429.65 65.0101C429.58 63.0666 430.096 61.1471 431.13 59.5C432.196 57.9721 433.703 56.8066 435.45 56.16C437.642 55.3577 439.966 54.9744 442.3 55.03H450.71V59.21H442.06C440.198 59.0856 438.357 59.6636 436.9 60.83C436.313 61.3529 435.847 61.9981 435.536 62.7203C435.225 63.4425 435.076 64.2241 435.1 65.0101C435.072 65.7863 435.219 66.5589 435.531 67.2705C435.842 67.982 436.31 68.6142 436.9 69.12C438.37 70.2566 440.206 70.8152 442.06 70.69C443.351 70.6957 444.632 70.4512 445.83 69.97C447.05 69.4718 448.094 68.6226 448.83 67.53C449.704 66.1084 450.158 64.4687 450.14 62.8L451.64 65.0101C451.527 66.9516 450.983 68.8438 450.05 70.55C449.208 72.0085 447.956 73.1873 446.45 73.94C444.717 74.7586 442.816 75.1561 440.9 75.1V75.1ZM451.05 74.29V65.0101H450.13V54.28C450.195 53.406 450.082 52.5278 449.796 51.6991C449.511 50.8704 449.06 50.1085 448.47 49.46C447.81 48.8836 447.043 48.4437 446.212 48.1656C445.381 47.8876 444.504 47.7769 443.63 47.84C442.43 47.84 441.19 47.84 439.92 47.9L436.26 48.0101C435.1 48.0101 434.1 48.11 433.26 48.19V43.31C434.11 43.24 435.01 43.17 435.96 43.11C436.91 43.05 437.88 43.02 438.88 43H441.78C444.42 42.9147 447.054 43.2973 449.56 44.1301C451.444 44.7753 453.029 46.0831 454.02 47.81C455.087 49.9476 455.586 52.3237 455.47 54.71V74.3201L451.05 74.29Z" fill="#003349"/>
<path d="M462.42 74.29V43.29H466.83V56.58H466.13C466.061 53.9414 466.485 51.3131 467.38 48.83C468.103 46.8633 469.434 45.1784 471.18 44.02C473.121 42.8556 475.359 42.2823 477.62 42.37H477.85C481.75 42.37 484.65 43.59 486.52 46.02C488.39 48.45 489.33 52.02 489.33 56.58V74.27H483.77V55.44C483.878 53.3299 483.161 51.2604 481.77 49.67C481.05 48.9319 480.18 48.3556 479.22 47.9797C478.259 47.6038 477.23 47.4369 476.2 47.49C475.111 47.4437 474.025 47.6203 473.007 48.0089C471.989 48.3975 471.061 48.99 470.28 49.75C469.517 50.5454 468.924 51.4872 468.535 52.5185C468.147 53.5498 467.972 54.6491 468.02 55.75V74.2601L462.42 74.29Z" fill="#003349"/>
<path d="M509.81 75.33C507.425 75.389 505.058 74.9142 502.88 73.94C501.004 73.0712 499.347 71.7932 498.03 70.2C496.772 68.6547 495.8 66.8971 495.16 65.01C494.534 63.1781 494.213 61.2559 494.21 59.32V58.32C494.207 56.3477 494.528 54.3882 495.16 52.52C495.79 50.6405 496.775 48.8991 498.06 47.39C499.396 45.8296 501.05 44.5717 502.91 43.7C505.036 42.7302 507.354 42.255 509.69 42.31C512.102 42.2688 514.493 42.7641 516.69 43.76C518.685 44.6637 520.409 46.0737 521.69 47.85C522.968 49.6863 523.702 51.8454 523.81 54.08H518.47C518.22 52.1884 517.267 50.4604 515.8 49.24C514.073 47.875 511.908 47.1854 509.71 47.3C507.762 47.2267 505.839 47.7539 504.2 48.81C502.721 49.8267 501.573 51.256 500.9 52.92C499.42 56.6968 499.42 60.8932 500.9 64.67C501.576 66.36 502.734 67.8138 504.23 68.85C505.896 69.9209 507.851 70.455 509.83 70.38C511.388 70.419 512.934 70.1009 514.35 69.45C515.565 68.8848 516.623 68.0298 517.43 66.96C518.197 65.9231 518.677 64.7019 518.82 63.42H524.15C524.081 65.6911 523.332 67.8893 522 69.73C520.681 71.5288 518.921 72.958 516.89 73.88C514.667 74.8819 512.248 75.3771 509.81 75.33V75.33Z" fill="#003349"/>
<path d="M543.22 75.33C540.813 75.3891 538.422 74.9144 536.22 73.94C534.357 73.0918 532.709 71.8339 531.4 70.2601C530.17 68.7341 529.237 66.9905 528.65 65.12C528.053 63.2447 527.749 61.2882 527.75 59.3201V58.3201C527.747 56.3321 528.05 54.3554 528.65 52.46C529.239 50.5936 530.172 48.8538 531.4 47.33C532.681 45.7695 534.298 44.5184 536.13 43.67C538.255 42.7226 540.564 42.2582 542.89 42.31C545.818 42.194 548.715 42.953 551.21 44.49C553.325 45.8599 555.013 47.7969 556.08 50.08C557.15 52.3676 557.696 54.8647 557.68 57.39V59.88H530.17V55.71H553.6L552.32 57.97C552.378 56.0185 552.038 54.0758 551.32 52.2601C550.681 50.7241 549.589 49.4194 548.19 48.52C546.595 47.5766 544.762 47.1115 542.91 47.18C540.971 47.1071 539.058 47.6344 537.43 48.69C535.965 49.7136 534.834 51.1468 534.18 52.81C532.748 56.6819 532.748 60.9382 534.18 64.81C534.843 66.5047 536.004 67.9586 537.51 68.98C539.291 70.0043 541.313 70.5359 543.367 70.5201C545.422 70.5042 547.435 69.9416 549.2 68.89C550.571 68.0351 551.559 66.6849 551.96 65.12H557.18C556.803 67.1172 555.931 68.9878 554.643 70.5602C553.355 72.1327 551.694 73.3567 549.81 74.12C547.717 74.9615 545.476 75.373 543.22 75.33Z" fill="#003349"/>
<path d="M249.5 57.46C251.69 48.08 264.19 41.64 265.7 43.59C267.82 46.32 260.58 54.59 249.27 59.69C249.276 58.9411 249.353 58.1944 249.5 57.46M219.08 56.46C219.27 55.22 219.73 52.83 220.08 51.33C224.8 30.5 248.28 8.95997 250.97 10.33C252.4 11.06 252.03 16.61 238.34 34.98C232.548 42.6734 226.112 49.8593 219.1 56.46M166.1 100.15C155.92 106.93 150.85 100.24 162.63 92.91C167.629 89.9244 172.98 87.573 178.56 85.91C175.22 91.14 170.94 96.91 166.1 100.1M121.1 100.17C110.91 106.95 105.84 100.26 117.62 92.93C122.782 89.854 128.331 87.4798 134.12 85.87C130.8 91.05 125.88 96.98 121.12 100.17M96.36 20.92C95.36 25.79 92.75 32.49 89.07 39.26C84.07 37.93 82.54 33.71 82.3 28.01C81.66 12.83 99.98 3.26 96.36 20.92ZM273.72 59.09C268.66 62.5 257.19 69.56 252.19 67.09C264.11 60.28 275.52 50.09 275.12 41.94C274.34 26.06 239.64 38.7 240.98 63.35C232.38 67.01 225.65 68.44 221.59 63.94C231.14 55.7 256.66 32.32 260.82 9.94002C265.38 -14.63 223.3 9.19001 212.9 46.18C210.9 53.18 210.6 57.93 211.24 62.18C206.38 65.7212 201.232 68.8488 195.85 71.53C202.6 58.38 207.75 47.63 207.75 47.63L198.75 47.42C198.75 47.42 193 58.94 186.25 62.73C171.96 70.82 168.37 64.27 177.75 54.73C188.42 43.86 196.66 46.59 196.66 46.59L201.66 38.92C201.66 38.92 195.09 35.47 181.88 41.92C175.377 45.1328 169.824 49.9858 165.77 56C164.269 58.3048 162.597 60.4942 160.77 62.55C158.52 65.16 154.27 69.8 150.77 71.75C157.15 59.28 162.7 47.75 162.7 47.75L153.81 47.54C153.81 47.54 148 58.99 141.3 62.78C127.01 70.87 121.58 65.05 132.96 54.78C144.73 44.15 151.73 46.55 151.73 46.55L156.68 38.97C156.68 38.97 149.68 35.85 136.43 42.26C128.3 46.26 124.56 51.93 120.66 56.16C118.705 58.3003 116.607 60.305 114.38 62.16C112.512 63.8425 110.316 65.1193 107.93 65.91C107.2 66.1 105.93 66.37 105.58 65.6C105.29 65.03 105.58 64.17 105.83 63.6L105.88 63.46C106.692 61.5282 107.665 59.6683 108.79 57.9C113.197 50.769 118.167 44.0009 123.65 37.66L115.65 33.66C104 40.43 98.22 39.73 98.22 39.73C104.04 27.73 111.64 7.04998 97.11 3.64998C75.92 -1.35002 62.84 39.36 84.73 46.65C77.79 57.48 69.29 66.79 63.15 66.79C55.23 66.79 64.35 42.85 64.35 42.85L57.13 39.38C57.13 39.38 46.68 53.59 32.13 63.62C23.34 69.7 22.45 64.49 26.45 59.26C34.55 48.66 47.91 35.8 42.45 30.63C37.84 26.28 32.45 31.95 31.56 32.97C31.39 33.15 31.23 33.33 31.05 33.5C29.38 35.17 22.38 41.68 15.2 41.68C9.61 41.68 7.12 39.01 7.12 39.01L0 45.53C0 45.53 10.28 55.17 26.79 46.85C26.79 46.85 18.79 55.56 15.31 61.35C9.48 71.03 15.88 79.74 31.21 73.2C39.43 69.7 51.82 57.44 51.82 57.44C51.82 57.44 47.82 78.56 63.82 75.13C81.44 71.34 93.56 48.2 93.74 47.88C98.2544 47.9028 102.739 47.1519 107 45.66C107 45.66 86.31 72.97 101.48 75.1C108.6 76.1 118.82 68.76 118.82 68.76C119.44 72.29 127.53 79.23 141.23 71.6C141.23 71.6 140.5 73.41 139.23 76.15C124.23 81.37 108.48 83.95 103.34 97.24C96.14 115.84 124.48 120.51 142.75 86.94L144.94 82.88C148.046 81.6139 151.031 80.071 153.86 78.27C154.33 77.97 154.86 77.64 155.3 77.27C156.43 76.52 157.58 75.7 158.73 74.8C160.673 73.2886 162.536 71.6764 164.31 69.97C164.31 69.97 169.6 80.63 186.25 71.48C185.617 73.0919 184.903 74.6706 184.11 76.21C166.85 81.95 153.64 83.29 148.3 97.11C141.45 114.84 169.54 120.38 187.81 86.82C188.54 85.48 189.28 84.1 190.02 82.72C198.836 79.5332 207.176 75.1596 214.81 69.72C221.7 77.44 231.81 76.61 242.96 71.33C252.71 82.73 273.48 69.04 277.48 66.23L273.72 59.09ZM129.45 20.09C131.45 16.62 136.28 13.46 139.67 13.46C140.56 13.46 140.89 13.69 140.92 13.74C141.03 13.95 141.02 14.84 140.24 16.22C138.24 19.7 133.41 22.86 130.02 22.86C129.13 22.86 128.81 22.63 128.77 22.57C128.66 22.36 128.67 21.48 129.45 20.09ZM129.75 30.66C136.15 30.66 143.58 26.04 147.03 19.9C149.1 16.24 149.39 12.53 147.82 9.73C146.37 7.14 143.5 5.65999 139.94 5.65999C133.55 5.65999 126.12 10.28 122.65 16.41C120.59 20.08 120.3 23.78 121.87 26.58C123.32 29.18 126.19 30.66 129.75 30.66Z" fill="#003349"/>
</g>
<defs>
<clipPath id="clip0_28_27">
<rect width="557.66" height="111.71" fill="white"/>
</clipPath>
</defs>
</svg>
