<?xml version="1.0" encoding="UTF-8"?><svg id="Layer_2" xmlns="http://www.w3.org/2000/svg" viewBox="0 0 59.06 64.03"><defs><style>.cls-1{fill:#5e438f;}</style></defs><g id="Layer_1-2"><path class="cls-1" d="m59.01,41.77c-.25-5.06-1.67-13.23-3.94-14.72-1.31-.85-2.65-.54-3.84-.27-1.95.45-3.63.83-6.09-3.33-3.79-6.43-8.47-9.27-11.57-11.15-.66-.4-1.26-.76-1.78-1.12-.83-.57-2.06-2.4-3.24-4.18C26.26,3.57,23.9.03,21.16,0c-1.18.01-2.25.62-3.13,1.87-1.25,1.78-1.51,4.64-.79,8.5.59,3.17,1.81,6.69,3.26,9.75-7.17.72-15.27,3.6-18.69,7.85-2.05,2.55-2.36,5.37-.89,8.17.94,1.8,2.31,3.23,4.01,4.32-.42,1.09-.72,2.52-.32,4.02.46,1.75,1.74,3.17,3.78,4.25-.29,1.04-.73,3.5.74,5.64.81,1.17,2.05,2.02,3.69,2.56-.09,1.14.02,2.69.97,4.09,1.28,1.87,3.62,2.88,6.97,3.01.24,0,.49.01.73.01,3.37,0,6.64-.89,9.03-2.29,11.27-.07,15.88-5.78,17.42-8.44,2.16,1.03,5.63,1.67,8.68-.78,2.32-1.86,2.58-6.87,2.39-10.74Zm-51.98,2.08c-.21-.79-.08-1.59.15-2.26,5.89,2.25,13.93.73,18.81-1.98,1.17-.39,2.16-.28,2.88.34.83.71,1.08,1.84.9,2.55-.11.43-.95,1.47-3.41,2.7-4.56,2.27-11.5,3.58-15.96,1.72-1.91-.8-3.04-1.83-3.37-3.06Zm4.17,9.1c-.79-1.14-.64-2.53-.47-3.28,1.48.43,3.09.63,4.75.63,4.23,0,8.74-1.25,11.99-2.87.25-.13.52-.26.78-.41,1.21.56,2.87,1.57,2.61,2.85-.42,2.08-5.61,5.16-12.78,5.24-3.49.04-5.88-.71-6.89-2.16Zm9.67,8.56c-2.51-.1-4.19-.74-5-1.91-.48-.69-.59-1.49-.57-2.15.79.1,1.62.16,2.53.16.1,0,.19,0,.29,0,4.64-.05,8.99-1.29,11.85-3.14,1.04.61,2.02,1.5,1.74,2.57-.59,2.24-5.46,4.68-10.84,4.47Zm34.19-10.95c-3.19,2.56-6.76.07-6.91-.04-.32-.23-.72-.3-1.1-.18-.37.11-.68.4-.81.76-.11.3-2.68,6.77-12.74,7.94.28-.44.5-.9.62-1.37.29-1.11.33-3.09-2.15-4.88.69-.77,1.17-1.58,1.34-2.44.23-1.15.1-3.17-2.75-4.93.78-.68,1.4-1.46,1.62-2.31.45-1.76-.25-3.85-1.7-5.08-.41-.35-.87-.62-1.37-.81.04-.04.09-.09.13-.13,1.25-1.48,1.23-3.11-.04-4.36-3.44-3.39-14.73-3.03-17.98-.2l1.64,1.88c2.78-2.42,12.44-2.01,14.58.1.22.22.38.38-.12.97-.53.63-1.36,1.26-2.38,1.84-.16.06-.32.11-.49.18l.03.06c-1.7.9-3.86,1.68-6.12,2.15-4.56.94-8.83.53-11.73-1.12-1.53-.87-2.72-2.09-3.52-3.63-1-1.9-.8-3.68.62-5.43,3.17-3.93,11.22-6.57,17.97-7.04,1.33,2.37,2.74,4.23,3.99,5.06,3.2,2.14,6.6,1.89,8.4.75,1.16-.74,1.75-1.88,1.58-3.07-.2-1.38-1.49-3.31-6.45-4.68-1.7-.47-3.8-.67-6.06-.61-1.48-2.95-2.84-6.63-3.48-10.04-.58-3.09-.44-5.43.38-6.6.38-.54.73-.81,1.05-.81h0c1.42.02,3.78,3.55,5.34,5.88,1.44,2.16,2.68,4.02,3.91,4.86.55.38,1.19.77,1.89,1.19,3.06,1.85,7.25,4.4,10.72,10.28,3.39,5.74,6.64,5,8.8,4.5.95-.22,1.51-.33,1.9-.08.95.76,2.87,7.6,2.87,14.56,0,5.25-1.15,6.58-1.5,6.87Zm-30.5-28.13c1.49.04,2.86.22,4.01.54,3.51.97,4.57,2.15,4.64,2.64.04.26-.3.5-.44.59-1.15.73-3.53.72-5.68-.72-.73-.49-1.62-1.58-2.54-3.05Z"/></g></svg>