<?xml version="1.0" encoding="UTF-8"?><svg id="Layer_2" xmlns="http://www.w3.org/2000/svg" viewBox="0 0 54.33 53.16"><defs><style>.cls-1{fill:#5e438f;}</style></defs><g id="Layer_1-2"><path class="cls-1" d="m52.38,7.14C50.14,3.02,46.26.5,41.45.07c-.51-.05-1.04-.07-1.56-.07-4.85,0-9.5,2.1-12.73,5.68C23.94,2.1,19.29,0,14.43,0c-.52,0-1.04.02-1.56.07C8.07.5,4.19,3.02,1.94,7.14c-2.72,5-2.58,11.59.37,17.19,6.43,12.2,22.27,28.82,24.78,28.82.02,0,.04,0,.07,0,.02,0,.04,0,.07,0,2.51,0,18.35-16.62,24.78-28.82,2.95-5.6,3.09-12.19.37-17.19Zm-25.22,2.78c1.24,2.18,1.88,4.63,1.89,7.18,0,1.32-.86,2.43-1.89,2.43s-1.89-1.12-1.89-2.44c0-.02,0-.04,0-.07.01-2.52.66-4.95,1.89-7.1Zm22.63,13.25c-6.39,12.13-20.08,25.69-22.63,27.4-2.55-1.7-16.24-15.26-22.63-27.4-2.57-4.87-2.71-10.56-.39-14.83,1.83-3.37,5.02-5.42,8.96-5.78.44-.04.88-.06,1.33-.06,4.37,0,8.38,1.9,11.16,5.22-1.84,2.78-2.81,6-2.82,9.37h0v.02h0v.02h0v.02c.02,2.7,1.98,4.9,4.39,4.9h0c2.41,0,4.37-2.19,4.39-4.9v-.02h0v-.02h0c0-3.38-.98-6.59-2.82-9.38,2.79-3.32,6.8-5.22,11.16-5.22.45,0,.89.02,1.33.06,3.95.36,7.13,2.41,8.96,5.78,2.33,4.28,2.18,9.96-.39,14.83Z"/></g></svg>