<?xml version="1.0" encoding="UTF-8"?><svg id="Layer_2" xmlns="http://www.w3.org/2000/svg" viewBox="0 0 70.64 58.73"><defs><style>.cls-1{fill:#5e438f;}</style></defs><g id="Layer_1-2"><path class="cls-1" d="m59.37,0l-.82.87c-4.62,4.94-23.74,25.49-32.26,36.55-4.84-5.15-12.56-10.15-13.79-10.93l-.95-.61L0,40.52l1.04.77c.21.16,21.44,15.81,21.73,16.03,1.33,1,2.58,1.42,3.75,1.42,3.29,0,5.96-3.31,8.22-6.12l.29-.36c5.81-7.2,34.52-41.36,34.81-41.7l.8-.95L59.37,0ZM26.39,41.38c.81,1.12,1.3,2.14,1.34,2.98.04,1.04-.26,1.78-.85,2.08-.51.27-1.18.2-1.67-.17-.38-.28-.78-.84-.57-1.91.11-.52.73-1.56,1.75-2.98Zm6.69,9.3l-.29.36c-3.72,4.62-5.65,6.42-8.52,4.27-.21-.16-16.36-12.07-20.71-15.28l8.55-10.83c4.12,2.71,9.42,6.73,12.67,10.23-1.48,2.04-2.42,3.6-2.59,4.43-.36,1.78.21,3.42,1.52,4.4,1.26.95,2.96,1.1,4.33.38,1.47-.77,2.26-2.37,2.19-4.39-.06-1.5-.94-3.2-2.29-4.94,6.5-8.39,21.23-24.72,31.63-35.88l7.56,6.44c-4.71,5.6-28.77,34.25-34.04,40.79Z"/></g></svg>