<?xml version="1.0" encoding="UTF-8"?><svg id="Layer_2" xmlns="http://www.w3.org/2000/svg" viewBox="0 0 60.61 60.63"><defs><style>.cls-1{fill:#5e438f;}</style></defs><g id="Layer_1-2"><g><path class="cls-1" d="m58.91,20.36c-2.66-7.64-8.14-13.79-15.42-17.32C36.2-.48,27.98-.96,20.34,1.7,12.69,4.36,6.54,9.84,3.02,17.12c-7.27,15.04-.96,33.19,14.08,40.47,4.18,2.02,8.66,3.04,13.17,3.04,3.35,0,6.72-.56,9.98-1.7,7.64-2.66,13.79-8.14,17.32-15.42,3.52-7.28,4-15.51,1.34-23.15Zm-3.59,22.06c-3.23,6.68-8.88,11.71-15.89,14.15-7.01,2.44-14.56,2-21.24-1.23C4.39,48.66-1.4,32.01,5.27,18.21c3.23-6.68,8.87-11.71,15.89-14.15,2.99-1.04,6.08-1.56,9.16-1.56,4.13,0,8.25.93,12.08,2.79,6.68,3.23,11.71,8.88,14.15,15.89,2.44,7.01,2,14.55-1.23,21.24Z"/><path class="cls-1" d="m40.78,25.84c.39.19.81.28,1.22.28,1.05,0,2.06-.59,2.55-1.59.33-.68.37-1.45.12-2.16-.25-.71-.76-1.29-1.44-1.61-.68-.33-1.45-.37-2.16-.13-.71.25-1.29.76-1.61,1.44-.68,1.4-.09,3.09,1.31,3.77Z"/><path class="cls-1" d="m38.26,42.94c-3.52,2.09-7.65,2.68-11.61,1.67-3.97-1.01-7.3-3.51-9.39-7.03-2.09-3.52-2.68-7.65-1.67-11.61l-2.42-.62c-1.18,4.61-.49,9.41,1.94,13.51,2.43,4.1,6.31,7,10.92,8.18,1.47.38,2.96.56,4.45.56,3.16,0,6.27-.85,9.06-2.5,4.1-2.43,7-6.31,8.18-10.92l-2.42-.62c-1.01,3.97-3.51,7.3-7.03,9.39Z"/><path class="cls-1" d="m23.22,21.36c.4.19.81.28,1.22.28,1.05,0,2.06-.59,2.55-1.59.33-.68.37-1.45.12-2.16-.25-.71-.76-1.29-1.44-1.61s-1.44-.37-2.16-.12c-.71.25-1.29.76-1.61,1.44-.68,1.4-.09,3.09,1.31,3.77Z"/></g></g></svg>